<svg width="112" height="48" viewBox="0 0 112 48" fill="none" xmlns="http://www.w3.org/2000/svg">
<circle cx="24" cy="24" r="23.5" stroke="#A8B1BC"/>
<path d="M21.9559 34V24.8771H19V21.3217H21.9559V18.6997C21.9559 15.6569 23.7452 14 26.3587 14C27.6105 14 28.6865 14.0968 29 14.1401V17.32L27.1874 17.3208C25.7661 17.3208 25.4909 18.0223 25.4909 19.0517V21.3217H28.8806L28.4393 24.8771H25.4909V34H21.9559Z" fill="#000A1A"/>
<circle cx="88" cy="24" r="23.5" stroke="#A8B1BC"/>
<path d="M87.9995 15.8018C90.6694 15.8018 90.9856 15.8118 92.0403 15.8599C92.6744 15.8677 93.3026 15.9841 93.8973 16.2042C94.3287 16.3705 94.7204 16.6253 95.0473 16.9522C95.3742 17.2791 95.629 17.6709 95.7953 18.1022C96.0154 18.697 96.1319 19.3251 96.1396 19.9592C96.1872 21.014 96.1977 21.3301 96.1977 24C96.1977 26.6699 96.1877 26.986 96.1396 28.0408C96.1319 28.6749 96.0154 29.303 95.7953 29.8978C95.629 30.3291 95.3742 30.7209 95.0473 31.0478C94.7204 31.3747 94.3287 31.6295 93.8973 31.7958C93.3026 32.0159 92.6744 32.1323 92.0403 32.1401C90.9861 32.1877 90.6699 32.1982 87.9995 32.1982C85.3292 32.1982 85.013 32.1882 83.9588 32.1401C83.3246 32.1323 82.6965 32.0159 82.1017 31.7958C81.6704 31.6295 81.2787 31.3747 80.9518 31.0478C80.6249 30.7209 80.3701 30.3291 80.2037 29.8978C79.9836 29.303 79.8672 28.6749 79.8594 28.0408C79.8118 26.986 79.8013 26.6699 79.8013 24C79.8013 21.3301 79.8113 21.014 79.8594 19.9592C79.8672 19.3251 79.9836 18.697 80.2037 18.1022C80.3701 17.6709 80.6249 17.2791 80.9518 16.9522C81.2787 16.6253 81.6704 16.3705 82.1017 16.2042C82.6965 15.9841 83.3246 15.8677 83.9588 15.8599C85.0135 15.8123 85.3297 15.8018 87.9995 15.8018ZM87.9995 14C85.2854 14 84.9435 14.0114 83.8769 14.06C83.0469 14.0765 82.2258 14.2336 81.4484 14.5247C80.7815 14.776 80.1775 15.1697 79.6785 15.6785C79.1693 16.1777 78.7752 16.7821 78.5238 17.4494C78.2327 18.2268 78.0756 19.0479 78.059 19.8778C78.0114 20.9435 78 21.2854 78 23.9995C78 26.7137 78.0114 27.0556 78.06 28.1222C78.0765 28.9521 78.2336 29.7733 78.5247 30.5506C78.7759 31.2179 79.1696 31.8222 79.6785 32.3215C80.1778 32.8304 80.7821 33.2241 81.4494 33.4753C82.2268 33.7664 83.0479 33.9235 83.8778 33.94C84.9444 33.9876 85.2849 34 88.0005 34C90.7161 34 91.0565 33.9886 92.1231 33.94C92.9531 33.9235 93.7742 33.7664 94.5516 33.4753C95.2156 33.2179 95.8187 32.8247 96.3221 32.3209C96.8255 31.8172 97.2183 31.2139 97.4753 30.5497C97.7664 29.7723 97.9235 28.9512 97.94 28.1212C97.9876 27.0556 97.9991 26.7137 97.9991 23.9995C97.9991 21.2854 97.9876 20.9435 97.9391 19.8769C97.9225 19.0469 97.7654 18.2258 97.4743 17.4484C97.2232 16.7812 96.8294 16.1768 96.3206 15.6775C95.8213 15.1687 95.2169 14.7749 94.5497 14.5238C93.7723 14.2327 92.9512 14.0756 92.1212 14.059C91.0556 14.0114 90.7137 14 87.9995 14Z" fill="#000A1A"/>
<path d="M87.9944 18.8662C86.9788 18.8662 85.986 19.1674 85.1415 19.7316C84.2971 20.2959 83.6389 21.0978 83.2503 22.0361C82.8616 22.9744 82.7599 24.0069 82.958 25.003C83.1562 25.9991 83.6452 26.9141 84.3634 27.6322C85.0815 28.3503 85.9965 28.8394 86.9926 29.0375C87.9887 29.2357 89.0212 29.134 89.9594 28.7453C90.8977 28.3567 91.6997 27.6985 92.264 26.8541C92.8282 26.0096 93.1294 25.0168 93.1294 24.0012C93.1294 22.6393 92.5884 21.3332 91.6254 20.3702C90.6624 19.4072 89.3563 18.8662 87.9944 18.8662ZM87.9944 27.3344C87.3351 27.3344 86.6907 27.1389 86.1426 26.7726C85.5944 26.4064 85.1672 25.8858 84.9149 25.2768C84.6626 24.6677 84.5966 23.9975 84.7252 23.3509C84.8539 22.7044 85.1713 22.1104 85.6375 21.6443C86.1036 21.1781 86.6975 20.8607 87.3441 20.7321C87.9907 20.6035 88.6609 20.6695 89.2699 20.9218C89.879 21.174 90.3996 21.6013 90.7658 22.1494C91.1321 22.6975 91.3275 23.342 91.3275 24.0012C91.3275 24.8852 90.9764 25.733 90.3513 26.3581C89.7262 26.9832 88.8784 27.3344 87.9944 27.3344Z" fill="#000A1A"/>
<path d="M93.3406 19.8629C94.0033 19.8629 94.5405 19.3257 94.5405 18.663C94.5405 18.0002 94.0033 17.463 93.3406 17.463C92.6779 17.463 92.1406 18.0002 92.1406 18.663C92.1406 19.3257 92.6779 19.8629 93.3406 19.8629Z" fill="#000A1A"/>
</svg>
