<svg width="16" height="16" viewBox="0 0 16 16" fill="none" xmlns="http://www.w3.org/2000/svg">
<g id="calendar_month">
<mask id="mask0_2362_1532" style="mask-type:alpha" maskUnits="userSpaceOnUse" x="0" y="0" width="16" height="16">
<rect id="Bounding box" width="16" height="16" fill="#D9D9D9"/>
</mask>
<g mask="url(#mask0_2362_1532)">
<path id="calendar_month_2" d="M3.53912 14.3334C3.20236 14.3334 2.91732 14.2167 2.68398 13.9834C2.45065 13.7501 2.33398 13.465 2.33398 13.1283V4.20523C2.33398 3.86847 2.45065 3.58343 2.68398 3.35009C2.91732 3.11676 3.20236 3.00009 3.53912 3.00009H4.4622V1.58984H5.48782V3.00009H10.5391V1.58984H11.5391V3.00009H12.4622C12.7989 3.00009 13.084 3.11676 13.3173 3.35009C13.5506 3.58343 13.6673 3.86847 13.6673 4.20523V13.1283C13.6673 13.465 13.5506 13.7501 13.3173 13.9834C13.084 14.2167 12.7989 14.3334 12.4622 14.3334H3.53912ZM3.53912 13.3334H12.4622C12.5134 13.3334 12.5605 13.312 12.6032 13.2693C12.6459 13.2266 12.6673 13.1795 12.6673 13.1283V6.87189H3.33397V13.1283C3.33397 13.1795 3.35533 13.2266 3.39807 13.2693C3.44081 13.312 3.48783 13.3334 3.53912 13.3334ZM3.33397 5.87191H12.6673V4.20523C12.6673 4.15394 12.6459 4.10692 12.6032 4.06418C12.5605 4.02144 12.5134 4.00008 12.4622 4.00008H3.53912C3.48783 4.00008 3.44081 4.02144 3.39807 4.06418C3.35533 4.10692 3.33397 4.15394 3.33397 4.20523V5.87191ZM8.00064 9.38469C7.83739 9.38469 7.69829 9.32722 7.58334 9.21226C7.46838 9.0973 7.4109 8.9582 7.4109 8.79496C7.4109 8.63172 7.46838 8.49262 7.58334 8.37766C7.69829 8.2627 7.83739 8.20523 8.00064 8.20523C8.16388 8.20523 8.30298 8.2627 8.41794 8.37766C8.53289 8.49262 8.59037 8.63172 8.59037 8.79496C8.59037 8.9582 8.53289 9.0973 8.41794 9.21226C8.30298 9.32722 8.16388 9.38469 8.00064 9.38469ZM5.33397 9.38469C5.17072 9.38469 5.03162 9.32722 4.91667 9.21226C4.80171 9.0973 4.74423 8.9582 4.74423 8.79496C4.74423 8.63172 4.80171 8.49262 4.91667 8.37766C5.03162 8.2627 5.17072 8.20523 5.33397 8.20523C5.49721 8.20523 5.63631 8.2627 5.75127 8.37766C5.86622 8.49262 5.9237 8.63172 5.9237 8.79496C5.9237 8.9582 5.86622 9.0973 5.75127 9.21226C5.63631 9.32722 5.49721 9.38469 5.33397 9.38469ZM10.6673 9.38469C10.5041 9.38469 10.365 9.32722 10.25 9.21226C10.135 9.0973 10.0776 8.9582 10.0776 8.79496C10.0776 8.63172 10.135 8.49262 10.25 8.37766C10.365 8.2627 10.5041 8.20523 10.6673 8.20523C10.8305 8.20523 10.9696 8.2627 11.0846 8.37766C11.1996 8.49262 11.257 8.63172 11.257 8.79496C11.257 8.9582 11.1996 9.0973 11.0846 9.21226C10.9696 9.32722 10.8305 9.38469 10.6673 9.38469ZM8.00064 12.0001C7.83739 12.0001 7.69829 11.9426 7.58334 11.8276C7.46838 11.7127 7.4109 11.5736 7.4109 11.4103C7.4109 11.2471 7.46838 11.108 7.58334 10.993C7.69829 10.8781 7.83739 10.8206 8.00064 10.8206C8.16388 10.8206 8.30298 10.8781 8.41794 10.993C8.53289 11.108 8.59037 11.2471 8.59037 11.4103C8.59037 11.5736 8.53289 11.7127 8.41794 11.8276C8.30298 11.9426 8.16388 12.0001 8.00064 12.0001ZM5.33397 12.0001C5.17072 12.0001 5.03162 11.9426 4.91667 11.8276C4.80171 11.7127 4.74423 11.5736 4.74423 11.4103C4.74423 11.2471 4.80171 11.108 4.91667 10.993C5.03162 10.8781 5.17072 10.8206 5.33397 10.8206C5.49721 10.8206 5.63631 10.8781 5.75127 10.993C5.86622 11.108 5.9237 11.2471 5.9237 11.4103C5.9237 11.5736 5.86622 11.7127 5.75127 11.8276C5.63631 11.9426 5.49721 12.0001 5.33397 12.0001ZM10.6673 12.0001C10.5041 12.0001 10.365 11.9426 10.25 11.8276C10.135 11.7127 10.0776 11.5736 10.0776 11.4103C10.0776 11.2471 10.135 11.108 10.25 10.993C10.365 10.8781 10.5041 10.8206 10.6673 10.8206C10.8305 10.8206 10.9696 10.8781 11.0846 10.993C11.1996 11.108 11.257 11.2471 11.257 11.4103C11.257 11.5736 11.1996 11.7127 11.0846 11.8276C10.9696 11.9426 10.8305 12.0001 10.6673 12.0001Z" fill="#000A1A"/>
</g>
</g>
</svg>
