<?xml version="1.0" encoding="utf-8"?>
<!-- Svg Vector Icons : http://www.onlinewebfonts.com/icon -->
<!DOCTYPE svg PUBLIC "-//W3C//DTD SVG 1.1//EN" "http://www.w3.org/Graphics/SVG/1.1/DTD/svg11.dtd">
<svg version="1.1" xmlns="http://www.w3.org/2000/svg" xmlns:xlink="http://www.w3.org/1999/xlink" x="0px" y="0px" viewBox="0 0 256 256" enable-background="new 0 0 256 256" xml:space="preserve">
<metadata> Svg Vector Icons : http://www.onlinewebfonts.com/icon </metadata>
<g><g><path fill="#000000" d="M109.9,93.2v22.9H91.6v27.5h18.3v64.1h27.5v-64.1h27.5v-27.5h-27.5V97.8c0-5.5,3.7-9.2,9.2-9.2h18.3V61.1H142C124.6,61.1,109.9,75.8,109.9,93.2L109.9,93.2z"/><path fill="#000000" d="M128,10C63.1,10,10,63.1,10,128c0,64.9,53.1,118,118,118s118-53.1,118-118S192.9,10,128,10z M128,236.2c-59.5,0-108.2-48.7-108.2-108.2C19.8,68.5,68.5,19.8,128,19.8S236.2,68.5,236.2,128C236.2,187.5,187.5,236.2,128,236.2z"/></g></g>
</svg>