<svg width="67" height="60" viewBox="0 0 67 60" fill="none" xmlns="http://www.w3.org/2000/svg">
<g id="Your_design">
<path id="Vector" d="M33.2242 24.7558C33.2267 24.7533 33.2279 24.7509 33.2304 24.7472C33.2292 24.7496 33.2267 24.7521 33.2242 24.7558C33.2217 24.7521 33.218 24.7509 33.2168 24.7472C33.2193 24.7496 33.2217 24.7521 33.2242 24.7558C33.2205 24.7595 33.2193 24.762 33.2168 24.7657C33.2193 24.762 33.2217 24.7595 33.2242 24.7558C33.2255 24.7595 33.2279 24.762 33.2304 24.7657C33.2292 24.762 33.2267 24.7583 33.2242 24.7558Z" fill="#FFD700"/>
<path id="Vector_2" d="M33.2233 24.7446C33.2247 24.7459 33.226 24.7459 33.226 24.7473C33.2247 24.7459 33.2247 24.7446 33.2233 24.7446C33.2233 24.7433 33.2247 24.7433 33.2247 24.7433C33.2247 24.742 33.226 24.742 33.226 24.7407C33.2247 24.7407 33.2247 24.742 33.2233 24.7446C33.222 24.7433 33.222 24.742 33.2207 24.7407C33.2207 24.742 33.222 24.742 33.222 24.7433C33.222 24.7433 33.2233 24.7433 33.2233 24.7446C33.222 24.7459 33.222 24.7473 33.2207 24.7473C33.2207 24.7459 33.222 24.7446 33.2233 24.7446Z" fill="#FFD700"/>
<path id="Vector_3" d="M15.4481 53.5255C15.5952 53.519 15.7136 53.5138 15.8035 53.5073V53.687C15.6121 53.7052 15.4663 53.7481 15.3674 53.8171C15.2685 53.8861 15.2008 53.9941 15.1643 54.1412C15.1279 54.2883 15.111 54.4966 15.111 54.766V57.2574C15.111 57.6596 15.0849 58.0189 15.0342 58.3365C14.9834 58.6541 14.8858 58.93 14.7413 59.1643C14.5916 59.4169 14.3677 59.6186 14.0709 59.7709C13.7742 59.9232 13.4123 60 12.9867 60C12.699 60 12.4152 59.9675 12.1367 59.9011C11.8581 59.8347 11.6134 59.7123 11.4038 59.5327C11.2177 59.3765 11.0732 59.1995 10.9678 59.0016C10.8623 58.8038 10.7921 58.5656 10.7569 58.287C10.7205 58.0085 10.7035 57.6739 10.7035 57.2847V54.4601C10.7035 54.2389 10.6866 54.0748 10.6541 53.9694C10.6215 53.864 10.5552 53.7924 10.4562 53.7533C10.3573 53.7143 10.2089 53.6922 10.0111 53.6857V53.506C10.1608 53.5125 10.3534 53.5177 10.5864 53.5242C10.8207 53.5308 11.0719 53.5334 11.3414 53.5334C11.5874 53.5334 11.8295 53.5308 12.0703 53.5242C12.3098 53.5177 12.5076 53.5125 12.6638 53.506V53.6857C12.4595 53.6922 12.3059 53.7143 12.2005 53.7533C12.095 53.7924 12.0247 53.864 11.9896 53.9694C11.9531 54.0748 11.9349 54.2376 11.9349 54.4601V57.7156C11.9349 58.015 11.9544 58.287 11.9935 58.5291C12.0325 58.7725 12.0989 58.9808 12.1913 59.1539C12.2838 59.3283 12.4165 59.4598 12.587 59.5496C12.7576 59.6394 12.9749 59.685 13.2392 59.685C13.6765 59.685 14.015 59.5861 14.2558 59.3882C14.4953 59.1904 14.6632 58.9144 14.7595 58.5604C14.8558 58.2063 14.904 57.8054 14.904 57.355V54.8363C14.904 54.5421 14.8832 54.3183 14.8415 54.1621C14.7999 54.0059 14.7166 53.8926 14.5942 53.8197C14.4706 53.7481 14.2896 53.7026 14.0501 53.6844V53.5047C14.1647 53.5112 14.313 53.5164 14.4953 53.5229C14.6775 53.5295 14.8467 53.5321 15.0029 53.5321C15.1526 53.5334 15.301 53.5308 15.4481 53.5255ZM42.1725 57.424C42.3039 57.6492 42.3703 57.8848 42.3703 58.1295C42.3703 58.4953 42.2766 58.809 42.0866 59.0693C41.8978 59.3296 41.6245 59.5301 41.2678 59.6681C40.9112 59.8061 40.4868 59.875 39.9948 59.875C39.8633 59.875 39.6616 59.8711 39.3921 59.862C39.1227 59.8529 38.796 59.849 38.412 59.849C38.166 59.849 37.9252 59.8503 37.6883 59.8529C37.4513 59.8555 37.2613 59.8633 37.1168 59.875V59.6954C37.3147 59.6837 37.4631 59.659 37.562 59.6238C37.6609 59.5874 37.7273 59.5158 37.7598 59.4077C37.7924 59.2997 37.8093 59.1383 37.8093 58.9222V54.4614C37.8093 54.2402 37.7924 54.0762 37.7598 53.9707C37.7273 53.8653 37.6609 53.7937 37.562 53.7546C37.4631 53.7156 37.3147 53.6935 37.1168 53.687V53.5073C37.2613 53.5138 37.4513 53.519 37.6883 53.5255C37.9252 53.5321 38.1608 53.5347 38.3951 53.5347C38.6827 53.5347 38.96 53.5321 39.2268 53.5255C39.4937 53.519 39.6811 53.5164 39.7891 53.5164C40.4972 53.5164 41.0257 53.6479 41.3772 53.9121C41.7286 54.1764 41.903 54.5148 41.903 54.9287C41.903 55.1383 41.8471 55.3479 41.7364 55.5587C41.6258 55.7683 41.4487 55.9571 41.2053 56.125C40.9619 56.2929 40.6469 56.4191 40.2564 56.5024V56.5207C40.7836 56.5688 41.2027 56.6756 41.5112 56.8396C41.8197 57.0036 42.0397 57.1988 42.1725 57.424ZM39.042 56.4933H39.5002C39.806 56.4933 40.0417 56.4256 40.2057 56.2916C40.371 56.1562 40.4842 55.9766 40.548 55.7514C40.6105 55.5262 40.643 55.2854 40.643 55.0277C40.643 54.5838 40.5649 54.2493 40.4087 54.0254C40.2525 53.8002 39.9948 53.6883 39.6355 53.6883C39.3895 53.6883 39.2294 53.739 39.1539 53.8406C39.0784 53.9421 39.042 54.149 39.042 54.4614V56.4933ZM41.0752 58.0944C41.0752 57.6323 40.9567 57.2756 40.7198 57.0244C40.4829 56.7732 40.0911 56.6469 39.5457 56.6469H39.042V58.9222C39.042 59.1318 39.0589 59.2906 39.0914 59.3986C39.124 59.5067 39.1878 59.5783 39.2802 59.6147C39.3726 59.6512 39.5067 59.6681 39.6798 59.6681C40.1653 59.6681 40.5194 59.5314 40.7406 59.2594C40.9645 58.986 41.0752 58.5981 41.0752 58.0944ZM57.4982 53.5073C57.234 53.5138 56.9437 53.519 56.6261 53.5255C56.3085 53.5321 55.9909 53.5347 55.6733 53.5347C55.3557 53.5347 55.068 53.5347 54.8103 53.5347C54.5461 53.5347 54.2558 53.5347 53.9382 53.5347C53.6206 53.5347 53.303 53.5321 52.9854 53.5255C52.6678 53.519 52.3762 53.5138 52.1132 53.5073C52.1367 53.7833 52.1536 54.0514 52.1627 54.3118C52.1718 54.5721 52.1757 54.7725 52.1757 54.9105C52.1757 55.0485 52.1744 55.1774 52.1718 55.2971C52.1692 55.4169 52.1614 55.5223 52.1497 55.6121H52.3567C52.4348 55.1318 52.5337 54.7556 52.6534 54.4836C52.7732 54.2115 52.932 54.015 53.1298 53.8939C53.3277 53.7742 53.5828 53.7143 53.8939 53.7143H54.1907V58.8402C54.1907 59.0862 54.166 59.2685 54.1191 59.3882C54.0709 59.508 53.9785 59.5874 53.8405 59.6264C53.7026 59.6655 53.5047 59.6876 53.247 59.6941V59.8737C53.4149 59.862 53.6349 59.8542 53.9082 59.8516C54.1803 59.849 54.4732 59.8477 54.7856 59.8477C55.0849 59.8477 55.3791 59.849 55.6668 59.8516C55.9544 59.8542 56.1887 59.862 56.3684 59.8737V59.6941C56.1041 59.6876 55.9037 59.6655 55.7657 59.6264C55.6277 59.5874 55.5366 59.508 55.4911 59.3882C55.4468 59.2685 55.4234 59.0849 55.4234 58.8402V53.7143H55.711C56.0286 53.7143 56.2851 53.7742 56.4803 53.8939C56.6756 54.0137 56.8331 54.2102 56.9528 54.4836C57.0726 54.7569 57.1741 55.1331 57.2587 55.6121H57.4657C57.4592 55.5223 57.4539 55.4169 57.4474 55.2971C57.4409 55.1774 57.4383 55.0485 57.4383 54.9105C57.4383 54.7725 57.4422 54.5734 57.4514 54.3118C57.4566 54.0514 57.4735 53.7833 57.4982 53.5073ZM50.2089 59.5639C50.313 59.6446 50.4107 59.6889 50.5005 59.6941V59.8737C50.3443 59.862 50.1568 59.8542 49.9382 59.8516C49.7195 59.849 49.4956 59.8477 49.2678 59.8477C49.0036 59.8477 48.7576 59.849 48.5298 59.8516C48.302 59.8542 48.1158 59.862 47.9714 59.8737V59.6941C48.2773 59.6824 48.4725 59.6303 48.5558 59.5366C48.6404 59.4442 48.6222 59.245 48.5024 58.9392L47.9557 57.4644H45.9278L45.644 58.2024C45.5308 58.5018 45.4618 58.7478 45.437 58.9405C45.4123 59.1318 45.4279 59.2828 45.4813 59.3895C45.5347 59.4976 45.6258 59.5744 45.7507 59.6186C45.877 59.6642 46.0319 59.6889 46.218 59.6954V59.875C46.0267 59.8633 45.8405 59.8555 45.6609 59.8529C45.4813 59.8503 45.3017 59.849 45.122 59.849C44.9906 59.849 44.8656 59.8503 44.7485 59.8529C44.6313 59.8555 44.5285 59.8633 44.4387 59.875V59.6954C44.5701 59.6655 44.7003 59.5874 44.8292 59.4611C44.958 59.3349 45.083 59.1162 45.2027 58.8051L47.262 53.4813C47.3335 53.4878 47.4117 53.4904 47.4963 53.4904C47.5809 53.4904 47.6577 53.4878 47.7306 53.4813L49.916 59.1201C50.0059 59.3349 50.1035 59.4832 50.2089 59.5639ZM47.8907 57.2847L46.9626 54.7803L45.9967 57.2847H47.8907ZM21.9369 56.8031C21.7026 56.6144 21.4396 56.4243 21.1455 56.2317C20.8279 56.0273 20.5532 55.8464 20.3228 55.6876C20.0924 55.5288 19.9141 55.3635 19.7878 55.193C19.6616 55.0225 19.5991 54.8103 19.5991 54.5591C19.5991 54.2649 19.6967 54.0319 19.892 53.8575C20.0872 53.6844 20.3306 53.5971 20.6248 53.5971C20.9541 53.5971 21.2262 53.6883 21.4383 53.8718C21.6505 54.054 21.8158 54.287 21.933 54.5682C22.0501 54.8493 22.1178 55.1435 22.136 55.4494H22.343C22.343 55.042 22.3443 54.714 22.3469 54.464C22.3495 54.2154 22.356 54.0163 22.3651 53.8666C22.3742 53.7169 22.382 53.5841 22.3872 53.4709H22.1803C22.1621 53.6023 22.1399 53.7013 22.1126 53.7677C22.0853 53.834 22.0423 53.8666 21.9824 53.8666C21.9408 53.8666 21.8965 53.8562 21.8523 53.8353C21.8067 53.8145 21.7494 53.7833 21.6765 53.7403C21.5451 53.657 21.3889 53.5789 21.2092 53.506C21.0296 53.4344 20.7719 53.398 20.4361 53.398C20.1067 53.398 19.7956 53.4553 19.5054 53.5685C19.2151 53.683 18.9795 53.8575 18.7999 54.0944C18.6202 54.3313 18.5304 54.6359 18.5304 55.0068C18.5304 55.3427 18.6033 55.629 18.7504 55.8659C18.8975 56.1028 19.094 56.3137 19.3401 56.4998C19.5861 56.686 19.8503 56.8682 20.1315 57.0478C20.4074 57.2158 20.6469 57.3811 20.8513 57.5425C21.0556 57.7039 21.2144 57.8783 21.3277 58.0644C21.4409 58.2506 21.4982 58.4666 21.4982 58.7114C21.4982 58.9574 21.4474 59.1591 21.3459 59.3179C21.2444 59.4767 21.1077 59.5939 20.9372 59.6681C20.7667 59.7436 20.5753 59.78 20.3658 59.78C19.9818 59.78 19.6746 59.6785 19.4442 59.4741C19.2138 59.2698 19.042 59.0016 18.9313 58.6697C18.8207 58.3365 18.753 57.9785 18.7296 57.5945H18.5226C18.5226 58.0501 18.5213 58.4263 18.5174 58.7231C18.5148 59.0198 18.5109 59.262 18.5083 59.4468C18.5057 59.6329 18.4979 59.7943 18.4862 59.9323H18.6931C18.7114 59.8008 18.7335 59.7019 18.7608 59.6355C18.7882 59.5692 18.8311 59.5366 18.891 59.5366C18.9626 59.5366 19.0654 59.5783 19.1969 59.6629C19.3466 59.741 19.5249 59.8152 19.7319 59.8881C19.9388 59.9596 20.2187 59.9961 20.5727 59.9961C20.9567 59.9961 21.3108 59.9336 21.6336 59.8074C21.9577 59.6811 22.2154 59.4898 22.4068 59.232C22.5981 58.9743 22.6944 58.6502 22.6944 58.261C22.6944 57.9317 22.6267 57.6531 22.4914 57.424C22.3547 57.2001 22.1699 56.9919 21.9369 56.8031ZM65.808 53.9707C65.8445 53.8653 65.9121 53.7937 66.0098 53.7546C66.1087 53.7156 66.2545 53.6935 66.4458 53.687V53.5073C66.3078 53.5138 66.123 53.519 65.8926 53.5255C65.6609 53.5321 65.4136 53.5347 65.1507 53.5347C64.9112 53.5347 64.6704 53.5321 64.4308 53.5255C64.1913 53.519 63.9896 53.5138 63.8282 53.5073V53.687C64.026 53.6935 64.1744 53.7156 64.2733 53.7546C64.3723 53.7937 64.4387 53.8653 64.4712 53.9707C64.5037 54.0762 64.5207 54.2389 64.5207 54.4614V56.5844H61.9577V54.4614C61.9577 54.2402 61.9759 54.0762 62.0124 53.9707C62.0475 53.8653 62.1152 53.7937 62.2141 53.7546C62.313 53.7156 62.4588 53.6935 62.6502 53.687V53.5073C62.5005 53.5138 62.3078 53.519 62.0748 53.5255C61.8405 53.5321 61.6036 53.5347 61.3641 53.5347C61.0947 53.5347 60.8409 53.5321 60.604 53.5255C60.3671 53.519 60.177 53.5138 60.0325 53.5073V53.687C60.2304 53.6935 60.3788 53.7156 60.4777 53.7546C60.5766 53.7937 60.643 53.8653 60.6756 53.9707C60.7081 54.0762 60.725 54.2389 60.725 54.4614V58.9222C60.725 59.1383 60.7081 59.2997 60.6756 59.4077C60.643 59.5158 60.5766 59.5874 60.4777 59.6238C60.3788 59.6603 60.2304 59.6837 60.0325 59.6954V59.875C60.177 59.8633 60.3671 59.8555 60.604 59.8529C60.8409 59.8503 61.0947 59.849 61.3641 59.849C61.6036 59.849 61.8405 59.8503 62.0748 59.8529C62.3091 59.8555 62.5005 59.8633 62.6502 59.875V59.6954C62.4588 59.6837 62.3117 59.659 62.2089 59.6238C62.1074 59.5874 62.0397 59.5158 62.0072 59.4077C61.9746 59.2997 61.9577 59.1383 61.9577 58.9222V56.7628H64.5207V58.9209C64.5207 59.137 64.5037 59.2984 64.4712 59.4064C64.4387 59.5145 64.3723 59.5861 64.2733 59.6225C64.1744 59.659 64.026 59.6824 63.8282 59.6941V59.8737C63.9896 59.862 64.1913 59.8542 64.4308 59.8516C64.6704 59.849 64.9112 59.8477 65.1507 59.8477C65.4149 59.8477 65.6622 59.849 65.8926 59.8516C66.123 59.8542 66.3078 59.862 66.4458 59.8737V59.6941C66.2532 59.6824 66.1074 59.6577 66.0046 59.6225C65.903 59.5861 65.8353 59.5145 65.8028 59.4064C65.7703 59.2984 65.7533 59.137 65.7533 58.9209V54.4601C65.7533 54.2389 65.7716 54.0749 65.808 53.9707ZM6.18809 53.5334C6.09827 53.5334 6.00325 53.5334 5.90433 53.5334C5.8054 53.5334 5.71038 53.5334 5.62057 53.5334L3.86853 58.1608L2.00456 53.506C1.84315 53.5125 1.65701 53.5177 1.44745 53.5242C1.23788 53.5308 1.0218 53.5334 0.800522 53.5334C0.656038 53.5334 0.511553 53.5308 0.364465 53.5242C0.217378 53.5177 0.0963228 53.5125 0 53.506V53.6857C0.197852 53.6922 0.346241 53.7143 0.445167 53.7533C0.544093 53.7924 0.610479 53.864 0.64302 53.9694C0.675562 54.0748 0.692484 54.2376 0.692484 54.4601V58.615C0.692484 58.8793 0.675562 59.0862 0.64302 59.2359C0.610479 59.3856 0.544093 59.4937 0.445167 59.56C0.346241 59.6264 0.197852 59.6707 0 59.6954V59.875C0.0963228 59.8633 0.217378 59.8555 0.364465 59.8529C0.511553 59.8503 0.656038 59.849 0.800522 59.849C0.961928 59.849 1.13375 59.8503 1.31338 59.8529C1.49301 59.8555 1.64009 59.8633 1.75334 59.875V59.6954C1.50212 59.672 1.31468 59.6251 1.19102 59.5561C1.06866 59.4871 0.989262 59.3739 0.952816 59.2138C0.916369 59.055 0.899447 58.8311 0.899447 58.5434V54.0827L3.27368 59.9011H3.41816L5.58542 54.2024V58.9209C5.58542 59.137 5.5672 59.2984 5.53206 59.4064C5.49561 59.5145 5.42532 59.5861 5.32119 59.6225C5.21575 59.659 5.06215 59.6824 4.85779 59.6941V59.8737C5.00228 59.862 5.19232 59.8542 5.42922 59.8516C5.66613 59.849 5.91995 59.8477 6.18939 59.8477C6.43541 59.8477 6.67752 59.849 6.91832 59.8516C7.15783 59.8542 7.35568 59.862 7.51188 59.8737V59.6941C7.32053 59.6824 7.17475 59.6577 7.07582 59.6225C6.9769 59.5861 6.90921 59.5145 6.87407 59.4064C6.83762 59.2984 6.8207 59.137 6.8207 58.9209V54.4601C6.8207 54.2389 6.83762 54.0748 6.87016 53.9694C6.9027 53.864 6.97039 53.7924 7.07192 53.7533C7.17345 53.7143 7.32054 53.6922 7.51318 53.6857V53.506C7.35698 53.5125 7.15913 53.5177 6.91963 53.5242C6.67752 53.5308 6.4341 53.5334 6.18809 53.5334ZM30.2102 58.5799C30.2102 58.2857 30.2193 58.0462 30.2376 57.8601H30.0306C29.9707 58.3157 29.8783 58.6736 29.752 58.9352C29.6258 59.1956 29.4592 59.383 29.2522 59.4976C29.0452 59.6121 28.7888 59.6681 28.4829 59.6681H27.9701C27.7839 59.6681 27.6446 59.6538 27.5522 59.6238C27.4598 59.5939 27.396 59.5314 27.3635 59.4351C27.3309 59.3388 27.314 59.1917 27.314 58.9938V56.7628H27.7097C27.9623 56.7628 28.1549 56.8187 28.2903 56.9294C28.4256 57.04 28.5246 57.1871 28.5871 57.3707C28.6495 57.5529 28.6964 57.7468 28.7263 57.9512H28.9333C28.9099 57.6089 28.8942 57.3485 28.889 57.1689C28.8825 56.9893 28.8799 56.824 28.8799 56.6743C28.8799 56.5246 28.8786 56.3593 28.8747 56.1796C28.8721 56 28.8825 55.7397 28.906 55.3973H28.699C28.6808 55.5171 28.6521 55.6446 28.6131 55.78C28.574 55.9154 28.5181 56.0443 28.4465 56.1666C28.3749 56.289 28.2799 56.3905 28.1627 56.4673C28.0456 56.5454 27.8946 56.5844 27.7084 56.5844H27.3127V54.3899C27.3127 54.192 27.3296 54.0449 27.3622 53.9499C27.3947 53.8536 27.4585 53.7911 27.5509 53.7611C27.6433 53.7312 27.7826 53.7169 27.9688 53.7169H28.4634C28.7576 53.7169 28.9958 53.7664 29.178 53.8653C29.3602 53.9642 29.506 54.1321 29.6141 54.369C29.7221 54.6059 29.8002 54.9313 29.8484 55.3453H30.0553C30.0488 55.2737 30.0436 55.1852 30.0371 55.0797C30.0306 54.9743 30.028 54.865 30.028 54.7517C30.028 54.632 30.0319 54.4562 30.041 54.2258C30.0501 53.9954 30.067 53.7572 30.0905 53.5112C29.8145 53.5229 29.5008 53.5308 29.1507 53.5334C28.8005 53.536 28.4868 53.5373 28.2109 53.5373C28.0664 53.5373 27.8842 53.5373 27.6629 53.5373C27.4403 53.5373 27.1995 53.536 26.9391 53.5334C26.6788 53.5308 26.4146 53.5268 26.1477 53.5242C25.8809 53.5216 25.6271 53.5164 25.3876 53.5112V53.6909C25.5854 53.6974 25.7338 53.7195 25.8327 53.7585C25.9317 53.7976 25.998 53.8692 26.0306 53.9746C26.0631 54.0801 26.0801 54.2428 26.0801 54.4653V58.9261C26.0801 59.1422 26.0631 59.3036 26.0306 59.4117C25.998 59.5197 25.9317 59.5913 25.8327 59.6277C25.7338 59.6642 25.5854 59.6876 25.3876 59.6993V59.8789C25.6271 59.8737 25.8809 59.8685 26.1477 59.8659C26.4146 59.8633 26.6775 59.8607 26.9352 59.8568C27.193 59.8542 27.4338 59.8529 27.659 59.8529C27.8842 59.8529 28.0677 59.8529 28.2122 59.8529C28.5116 59.8529 28.8539 59.8542 29.2379 59.8568C29.6219 59.8594 29.9668 59.8672 30.2727 59.8789C30.2493 59.6212 30.2323 59.3726 30.2232 59.1331C30.2154 58.8884 30.2102 58.7048 30.2102 58.5799ZM52.656 34.4732C52.1419 35.4103 51.2203 36.0234 50.2831 36.5884C50.0215 37.644 49.7143 38.7022 48.9867 39.4507C48.3072 40.1497 47.37 40.4933 46.4107 40.7693C45.9278 41.6466 45.3837 42.4862 44.5545 42.9925C43.659 43.5392 42.5656 43.6082 41.48 43.6251C40.7289 44.3996 39.9349 45.1442 38.9261 45.4201C38.6124 45.506 38.2935 45.5425 37.9707 45.5425C37.329 45.5425 36.6743 45.4006 36.0247 45.2275C35.1448 45.739 34.2297 46.1829 33.2236 46.1829C32.1705 46.1829 31.2177 45.6974 30.3 45.1559C29.2743 45.4201 28.2278 45.6232 27.2203 45.3316C26.2454 45.0504 25.4813 44.3619 24.768 43.6212C23.7488 43.5978 22.7335 43.5054 21.8926 42.9925C21.0023 42.4484 20.44 41.5203 19.9284 40.5727C18.891 40.2577 17.8614 39.8907 17.1481 39.1227C16.479 38.4042 16.1783 37.4383 15.944 36.4543C15.0849 35.9245 14.2649 35.3362 13.7911 34.4732C13.2886 33.5581 13.2678 32.4595 13.2912 31.3726C12.5389 30.5812 11.8139 29.7468 11.5626 28.7107C11.3362 27.78 11.5353 26.8064 11.8008 25.8471C11.314 24.9788 10.8949 24.0755 10.8949 23.0914C10.8949 22.0137 11.3986 21.0335 11.9414 20.0885C11.6616 19.0303 11.4299 17.9473 11.711 16.9034C11.9649 15.961 12.5975 15.2073 13.286 14.5031C13.2756 13.519 13.3368 12.5389 13.7911 11.7097C14.3052 10.7725 15.2268 10.1595 16.164 9.59454C16.4256 8.53889 16.7328 7.48064 17.4605 6.73218C18.1399 6.03319 19.0771 5.68955 20.0364 5.4136C20.5194 4.53628 21.0635 3.69671 21.8926 3.19037C22.7882 2.64367 23.8816 2.57599 24.9671 2.55776C25.7182 1.78328 26.5122 1.03873 27.521 0.762775C28.4582 0.506348 29.4474 0.696387 30.4224 0.955418C31.3023 0.443865 32.2174 0 33.2236 0C34.2766 0 35.2294 0.485521 36.1471 1.02701C37.1728 0.762774 38.2193 0.559715 39.2268 0.851287C40.2018 1.13244 40.9658 1.82102 41.6778 2.56167C42.697 2.5851 43.7123 2.67752 44.5532 3.19037C45.4435 3.73446 46.0059 4.66255 46.5161 5.61015C47.5535 5.92516 48.5831 6.29222 49.2978 7.0589C49.9668 7.77742 50.2675 8.74325 50.5018 9.7273C51.3609 10.2571 52.1809 10.8454 52.6547 11.7084C53.1572 12.6235 53.178 13.7221 53.1546 14.809C53.9069 15.6004 54.632 16.4348 54.8832 17.4709C55.1097 18.4016 54.9105 19.3752 54.645 20.3345C55.1318 21.2027 55.5509 22.1061 55.5509 23.0901C55.5509 24.1679 55.0472 25.1481 54.5044 26.0931C54.7842 27.1513 55.0159 28.2343 54.7348 29.2782C54.481 30.2206 53.8497 30.9743 53.1598 31.6785C53.1702 32.6652 53.1103 33.644 52.656 34.4732ZM54.054 26.8754C53.726 27.452 53.437 28.0104 53.2938 28.574C53.122 29.2496 53.1233 30.0215 53.1416 30.7816C53.5919 30.2714 53.9668 29.7273 54.1308 29.1155C54.3196 28.4139 54.2271 27.6473 54.054 26.8754ZM54.3964 21.2001C54.1842 21.9278 53.9876 22.671 53.9785 23.3648C53.9707 23.9544 54.1048 24.5727 54.274 25.221C54.6411 24.5259 54.9274 23.8152 54.9274 23.0901C54.9261 22.4497 54.7009 21.8197 54.3964 21.2001ZM53.2938 17.6076C53.4579 18.2545 53.8119 18.8923 54.1985 19.56C54.3534 18.8806 54.425 18.231 54.2753 17.6193C54.1048 16.9177 53.6661 16.3085 53.135 15.711C53.1272 16.3684 53.1455 17.0244 53.2938 17.6076ZM50.7009 10.6007C50.8702 11.3505 51.0485 12.056 51.3674 12.6547C51.6512 13.1832 52.0703 13.6674 52.5337 14.1595C52.5259 13.3641 52.4439 12.6274 52.1054 12.0104C51.793 11.4403 51.2893 11.0016 50.7009 10.6007ZM52.4413 14.9691C52.4113 14.9378 52.3814 14.9066 52.3514 14.8754C52.4178 15.0368 52.4725 15.2034 52.5155 15.3726C52.5168 15.2919 52.5194 15.2112 52.522 15.1305C52.522 15.1058 52.5233 15.0797 52.5233 15.055C52.4959 15.0264 52.4686 14.9977 52.4413 14.9691ZM51.1084 21.0205C51.1865 20.2629 51.3856 19.5353 51.5978 18.8064C51.8047 18.097 52.0234 17.3746 52.0651 16.6326C52.1041 15.9518 51.9727 15.2906 51.6342 14.6957C51.3192 14.1425 50.8689 13.6648 50.356 13.2926C49.1624 12.4217 47.6993 11.9831 46.3078 11.5405C43.495 10.6502 40.5727 9.93036 38.0111 8.41914C36.807 7.71103 35.6837 6.8233 34.779 5.75984C34.6333 5.61666 34.4966 5.46567 34.3677 5.30947C34.6411 5.79759 34.9769 6.25057 35.3557 6.66059C37.3641 8.84218 40.3202 9.75073 42.7999 11.2476C44.0534 12.0052 45.1949 12.9242 46.0631 14.1139C46.8129 15.1409 47.3388 16.3189 47.5822 17.5646C47.5848 17.5724 47.5887 17.5789 47.59 17.5867C47.6069 17.6323 47.6121 17.6752 47.6095 17.7143C47.6238 17.8015 47.6381 17.8887 47.6512 17.9785C47.6642 18.0124 47.6707 18.0501 47.6681 18.0931C47.6564 18.3039 47.6967 18.5018 47.767 18.7009C47.9206 19.1487 48.2135 19.56 48.5441 19.8985C48.8825 20.2447 49.303 20.4907 49.6974 20.7693C50.1217 21.07 50.5226 21.3954 50.8259 21.8223C50.9196 21.9538 51.0003 22.0957 51.0693 22.2402C51.0563 21.8327 51.0654 21.4279 51.1084 21.0205ZM44.8266 39.3505C44.9424 39.2125 45.053 39.0706 45.1598 38.9248C45.6752 38.2154 46.0788 37.424 46.3287 36.5805C46.6476 35.5067 46.6254 34.3977 46.7595 33.2952C46.8845 32.2616 47.2151 31.3036 47.7045 30.3859C48.1666 29.5151 48.7302 28.7042 49.2574 27.8737C49.7898 27.0381 50.3104 26.1673 50.6007 25.2145C50.8689 24.3345 50.9691 23.3023 50.5421 22.4549C50.0827 21.5425 49.1181 21.1468 48.3736 20.5181C48.0534 20.246 47.7384 19.8894 47.5015 19.4911C47.4871 19.5509 47.4715 19.6121 47.4559 19.6707C47.2594 20.4217 46.9808 21.1494 46.7908 21.903C46.6072 22.632 46.4849 23.4182 46.7035 24.1536C46.9183 24.8799 47.4884 25.4071 47.9375 25.9902C48.397 26.589 48.7341 27.3179 48.5662 28.0859C48.561 28.1145 48.5506 28.138 48.5389 28.1601C48.5246 28.4426 48.069 28.535 47.9766 28.2161C47.6655 27.1279 46.7725 26.3612 45.946 25.6505C45.4969 25.2626 45.0413 24.8734 44.656 24.4204C44.6027 24.3541 44.5532 24.2851 44.4998 24.2174C44.4998 24.3189 44.4972 24.4217 44.492 24.5259C44.492 24.5415 44.4907 24.5597 44.4894 24.5766C44.932 25.0882 45.368 25.6089 45.7533 26.1647C46.5018 27.2398 47.0732 28.5037 47.0654 29.834C47.0589 31.0173 46.5552 32.1783 45.5945 32.889C45.4709 32.9802 45.2743 32.9099 45.204 32.7862C45.1233 32.6417 45.1819 32.4881 45.3069 32.3957C45.7703 32.0521 46.1061 31.5496 46.2935 31.0068C47.0159 28.919 45.7312 26.9561 44.4217 25.3759C44.3215 26.2258 44.1536 27.068 44.0443 27.9167C43.9076 28.9619 43.8763 30.0176 44.1601 31.0407C44.4204 31.9792 44.9047 32.8461 45.5685 33.5607C45.9017 33.9199 45.3654 34.4575 45.0296 34.0996C44.2499 33.2613 43.6785 32.2343 43.3934 31.124C43.0758 29.8939 43.1695 28.6378 43.3544 27.3934C43.5158 26.2909 43.7462 25.1923 43.7423 24.0729C43.741 23.3752 43.6473 22.684 43.4741 22.0085C43.4442 21.959 43.426 21.8991 43.426 21.834C43.3765 21.6531 43.3231 21.4748 43.2607 21.2991C42.6307 19.4741 41.4071 17.9447 39.8113 16.8721C39.8047 16.8695 39.7982 16.8643 39.7917 16.8604C39.9883 17.178 40.177 17.5021 40.3528 17.834C40.3619 17.8497 40.3697 17.864 40.3762 17.8822C40.8148 18.714 41.1858 19.5835 41.4904 20.4712C41.7651 21.2652 41.9837 22.0801 42.1178 22.9105C42.2649 23.8334 42.2844 24.7615 42.2701 25.6961C42.2363 27.6212 42.0853 29.6115 42.8676 31.4234C43.5744 33.0569 44.7667 34.4992 45.0908 36.2851C45.2782 37.3147 45.1806 38.3794 44.8266 39.3505ZM21.5216 35.616C22.054 33.903 23.2633 32.5024 23.8113 30.7999C24.423 28.9008 24.1575 26.8728 24.1731 24.9138C24.1887 23.1565 24.5558 21.4605 25.1923 19.823C25.4474 19.1656 25.7403 18.5226 26.0657 17.8965C26.0788 17.8588 26.0957 17.8236 26.1217 17.7937C26.2896 17.4761 26.4679 17.1611 26.6554 16.8552C26.4523 16.9919 26.2506 17.135 26.0566 17.286C24.5844 18.4198 23.5223 20.043 23.0238 21.8301C23.0238 21.8952 23.0068 21.9551 22.9756 22.0046C22.74 22.9222 22.6632 23.862 22.7348 24.807C22.8194 25.946 23.0745 27.0641 23.2021 28.1979C23.3231 29.2899 23.2945 30.3951 22.9626 31.4494C22.6515 32.4361 22.123 33.3394 21.4188 34.097C21.0856 34.4562 20.5467 33.9174 20.8799 33.5581C21.6297 32.7511 22.1451 31.7527 22.3794 30.6762C22.6346 29.4943 22.4732 28.2786 22.2844 27.1006C22.1933 26.5252 22.0957 25.9499 22.0293 25.3706C21.7494 25.7026 21.4787 26.041 21.2275 26.3964C20.5506 27.357 19.9974 28.4686 19.9583 29.6661C19.9245 30.684 20.2994 31.7722 21.1429 32.3944C21.2652 32.4868 21.3316 32.6404 21.2444 32.7849C21.1715 32.9073 20.9788 32.9802 20.8539 32.8877C20.3098 32.4842 19.9167 31.9492 19.6655 31.3218C19.1943 30.1386 19.3648 28.8174 19.8516 27.6707C20.3436 26.507 21.1416 25.5203 21.9603 24.5727C21.9538 24.4543 21.9486 24.3345 21.9473 24.2161C21.8887 24.2942 21.8327 24.3723 21.769 24.4452C21.3889 24.8877 20.9437 25.2691 20.5011 25.6505C19.6759 26.3625 18.7829 27.1292 18.4706 28.2161C18.3794 28.535 17.9226 28.4413 17.9095 28.1601C17.8965 28.138 17.8874 28.1145 17.8809 28.0859C17.6883 27.2034 18.1569 26.4159 18.6957 25.7559C19.163 25.1845 19.6564 24.6508 19.8074 23.9024C19.9583 23.1513 19.7878 22.3638 19.5887 21.6401C19.396 20.9476 19.1175 20.2252 18.9457 19.4963C18.6918 19.9219 18.3469 20.302 17.998 20.5792C17.1962 21.2171 16.1692 21.67 15.7982 22.7022C15.1695 24.4595 16.2122 26.3248 17.1246 27.7722C18.1061 29.329 19.2607 30.8624 19.6017 32.7133C19.8021 33.7911 19.7436 34.9001 19.9649 35.974C20.1458 36.8474 20.4855 37.6778 20.9567 38.4341C21.1572 38.7582 21.3811 39.0641 21.6258 39.3557C21.191 38.1699 21.139 36.8448 21.5216 35.616ZM15.3778 22.1933C15.3778 22.2102 15.3765 22.2284 15.3752 22.2441C15.3882 22.218 15.3986 22.1933 15.413 22.166C15.8633 21.2652 16.7628 20.7914 17.5399 20.2161C17.8835 19.9636 18.1699 19.6329 18.3964 19.275C18.6176 18.9209 18.8012 18.5174 18.7803 18.0918C18.7777 18.0475 18.783 18.0098 18.7973 17.9746C18.8103 17.8874 18.8233 17.8002 18.8389 17.7143C18.8337 17.6765 18.8389 17.6336 18.8558 17.5867C18.8584 17.5776 18.8637 17.5698 18.8676 17.5594C19.1487 16.1328 19.8008 14.8064 20.7224 13.6765C22.6072 11.3648 25.4956 10.343 28.0273 8.9385C29.2965 8.233 30.5135 7.40254 31.4351 6.26489C31.6798 5.9616 31.8998 5.63749 32.0911 5.29645C31.9857 5.42532 31.8763 5.54898 31.7605 5.66743C30.6424 7.01595 29.1624 8.0794 27.6212 8.87081C24.919 10.2571 21.9304 10.9183 19.0719 11.8933C17.7455 12.3462 16.3697 12.8734 15.3908 13.9213C14.9574 14.3833 14.6202 14.9405 14.4693 15.56C14.2987 16.2603 14.3846 16.9893 14.546 17.683C14.7179 18.4198 14.9652 19.1357 15.1435 19.8724C15.3231 20.6326 15.4012 21.4097 15.3778 22.1933ZM32.7979 11.1071C32.3775 12.0807 31.8139 13.0075 31.0914 13.7885C30.2844 14.6593 29.2808 15.2698 28.2642 15.8672C27.7058 16.5675 27.2151 17.3303 26.7908 18.1282C26.7908 18.1295 26.7908 18.1308 26.7895 18.1334C26.6424 19.0953 26.5304 20.0677 26.5526 21.0413C26.5695 21.8744 26.7088 22.6827 27.1006 23.426C27.2073 23.6238 27.3231 23.8152 27.4468 24.0026C27.4663 24.0234 27.4819 24.0456 27.495 24.0729C27.495 24.0742 27.4963 24.0742 27.4963 24.0755C27.8815 24.6443 28.341 25.1663 28.7953 25.6804C29.9967 27.0433 31.3973 28.358 33.2236 28.7641C34.1842 28.5493 35.0693 28.0781 35.8347 27.4663C36.591 26.861 37.2496 26.1503 37.8822 25.4188C38.2571 24.9854 38.632 24.5441 38.9561 24.0703C38.9678 24.0443 38.9834 24.0221 39.0003 24.0039C39.1865 23.7267 39.3544 23.4364 39.4923 23.1305C39.8334 22.3794 39.905 21.5399 39.9011 20.725C39.8946 19.8581 39.793 18.9938 39.6616 18.1386C39.2346 17.3316 38.7426 16.5623 38.179 15.8568C36.9945 15.1487 35.8269 14.4198 34.96 13.316C34.1868 12.3293 33.5893 11.1774 33.2223 9.96421C33.0986 10.3534 32.958 10.7348 32.7979 11.1071ZM33.3121 7.6876C33.2834 7.59518 33.2548 7.50277 33.2301 7.41035C33.2027 7.50277 33.1767 7.59519 33.1481 7.685C33.2014 7.67328 33.2574 7.67458 33.3121 7.6876ZM44.0729 7.33485C43.6485 6.76473 43.1331 6.26489 42.5487 5.86007C41.8718 5.39018 41.1168 5.04133 40.3176 4.84087C39.4143 4.61569 38.5122 4.64042 37.5893 4.7016C36.6261 4.76408 35.6251 4.81744 34.7101 4.45168C34.6137 4.41393 34.5161 4.37097 34.4224 4.32411C34.6294 4.65474 34.8558 4.96844 35.1019 5.26912C35.4754 5.65051 35.9076 5.97722 36.3931 6.23365C38.7491 7.47153 41.4956 7.08103 44.0729 7.33485ZM39.0875 7.6056C38.4315 7.51839 37.7729 7.38171 37.1429 7.16954C37.9017 7.72405 38.7231 8.19655 39.5587 8.59616C42.3755 9.93817 45.4592 10.5434 48.3671 11.642C48.7576 11.7891 49.1455 11.9518 49.5203 12.138C49.467 10.8845 48.6873 9.73642 47.6486 9.04784C46.7309 8.43996 45.7208 8.13277 44.6691 7.97137C44.6274 7.97397 44.5844 7.97006 44.5454 7.95444C42.7491 7.69541 40.8448 7.8399 39.0875 7.6056ZM38.1373 4.09763C37.5815 3.52229 36.5844 3.55483 35.8269 3.57956C35.2203 3.60169 34.5916 3.58477 34.0371 3.37911C34.4575 3.77742 35.0498 4.01432 35.616 4.11325C36.4465 4.25903 37.2978 4.14579 38.1373 4.09763ZM33.6791 5.72861C33.7533 6.51611 33.9408 7.2958 34.2297 8.03645C34.7803 9.45005 35.7358 10.6124 36.8929 11.5744C38.1048 12.5831 39.4754 13.3772 40.7354 14.3196C41.9421 15.2229 43.1656 16.2851 43.7852 17.6961C44.3436 18.9652 44.5454 20.4413 44.2031 21.7976C44.3085 22.1998 44.3853 22.6085 44.4348 23.0225C44.6391 23.4338 44.8825 23.8282 45.1923 24.1679C45.5919 24.6079 46.0514 24.9906 46.5005 25.3798C46.8012 25.6401 47.0992 25.9095 47.3752 26.2011C47.275 26.0761 47.1747 25.9564 47.0797 25.8418C46.602 25.2717 46.1855 24.6795 46.0644 23.9297C45.946 23.1878 46.0618 22.438 46.2454 21.7195C46.4328 20.988 46.6996 20.2812 46.8936 19.5522C47.0641 18.9183 47.1813 18.2219 46.9743 17.5841C46.3951 16.1848 45.3212 15.0654 44.095 14.2024C41.8067 12.591 39.0745 11.7345 36.8435 10.0358C35.7436 9.19753 34.8129 8.17182 34.179 6.93264C33.9824 6.54344 33.8171 6.13993 33.6791 5.72861ZM35.0498 7.30231C36.5454 9.67784 39.1747 10.8571 41.5854 12.0833C42.8324 12.7185 44.0638 13.3954 45.1494 14.287C45.4761 14.5565 45.7859 14.848 46.0709 15.1591C45.7846 14.6697 45.45 14.2089 45.0765 13.7898C43.1006 11.5718 40.1679 10.6346 37.6713 9.16629C36.6157 8.5441 35.6212 7.81126 34.8116 6.89489C34.8871 7.03287 34.9652 7.16954 35.0498 7.30231ZM42.727 17.329C41.8991 16.0482 40.574 15.1045 39.3362 14.2532C38.0215 13.3511 36.6547 12.4959 35.5236 11.3583C34.7491 10.5799 34.1321 9.66873 33.6896 8.68077C33.8262 9.46046 34.0774 10.2271 34.4042 10.9418C34.8233 11.8581 35.3674 12.7341 36.0846 13.4474C36.7823 14.1399 37.6349 14.6554 38.4732 15.1539C38.507 15.1734 38.5382 15.193 38.5721 15.2125C38.6059 15.2255 38.6372 15.2424 38.6645 15.2659C39.5067 15.7657 40.3488 16.2642 41.1077 16.8851C42.1751 17.7585 43.0264 18.891 43.6108 20.1419C43.5665 19.1474 43.2555 18.149 42.727 17.329ZM38.0462 26.3846C38.0176 26.4146 37.9902 26.4471 37.9616 26.4771C37.7716 26.6866 37.5763 26.8936 37.3772 27.0953C37.3759 27.0966 37.3759 27.1006 37.3746 27.1032C37.0491 28.0078 37.3264 28.9216 37.6987 29.7729C37.683 29.6518 37.67 29.5295 37.6622 29.4071C37.5867 28.3749 37.752 27.3635 38.0462 26.3846ZM28.7511 29.7546C28.7511 29.7624 28.7498 29.769 28.7485 29.7755C29.1181 28.9307 29.3967 28.0013 29.0726 27.1032C29.0726 27.1006 29.0726 27.0967 29.0713 27.094C28.8448 26.865 28.6235 26.6307 28.4074 26.3885C28.4738 26.6124 28.535 26.8363 28.5857 27.0628C28.781 27.944 28.863 28.8578 28.7511 29.7546ZM27.7735 15.2789C27.8074 15.2476 27.8451 15.2229 27.8881 15.2112C28.9567 14.5773 30.0085 13.9239 30.8103 12.9567C31.7943 11.7709 32.4985 10.2323 32.7602 8.68858C32.2278 9.86267 31.4585 10.8988 30.4927 11.7696C29.3043 12.8409 27.9297 13.67 26.628 14.5929C25.4266 15.4442 24.1562 16.4348 23.4676 17.7703C23.094 18.4927 22.8741 19.3231 22.8389 20.1549C23.5444 18.6528 24.6209 17.3654 25.9863 16.3957C26.5552 15.9922 27.1643 15.6368 27.7735 15.2789ZM32.7667 5.74813C32.5714 6.32346 32.3176 6.87927 32.0065 7.40124C30.5565 9.84315 28.0117 11.1344 25.562 12.3684C23.1656 13.575 20.5506 14.9743 19.4702 17.5789C19.2333 18.3026 19.4169 19.1032 19.6238 19.8152C20.0338 21.2171 20.7055 22.7296 20.3215 24.2122C20.1354 24.9294 19.6642 25.4813 19.2008 26.0384C19.1565 26.0905 19.1123 26.1464 19.0667 26.2024C19.3427 25.9121 19.6433 25.6401 19.9427 25.3798C20.3918 24.9906 20.8513 24.6079 21.2522 24.1679C21.562 23.8282 21.8054 23.4338 22.0098 23.0225C22.0592 22.6098 22.1373 22.1998 22.2415 21.7963C21.8588 20.2877 22.136 18.5851 22.8858 17.234C23.6394 15.8776 24.9437 14.8571 26.1855 13.972C27.4689 13.0596 28.8331 12.2486 29.9994 11.1852C31.1019 10.179 31.9401 8.94761 32.397 7.52229C32.5844 6.94566 32.7081 6.34819 32.7667 5.74813ZM21.7169 13.959C23.9466 12.2707 26.671 11.4169 28.9502 9.8067C30.041 9.03612 30.9782 8.0794 31.629 6.90921C29.7143 9.0986 26.8519 10.0735 24.3866 11.478C23.1227 12.1979 21.9291 13.0517 21.027 14.2063C20.7836 14.5161 20.5623 14.8441 20.3619 15.1878C20.7706 14.7387 21.2262 14.33 21.7169 13.959ZM25.8236 4.92418C24.453 5.33681 23.2255 6.192 22.3716 7.33616C23.7839 7.19297 25.2405 7.22682 26.6098 7.11357C27.957 7.00423 29.3342 6.71787 30.4875 5.97982C30.7673 5.8002 31.0264 5.59193 31.2607 5.36414C31.5379 5.03482 31.7943 4.68988 32.0208 4.32542C31.836 4.41653 31.6446 4.49203 31.4507 4.5519C30.481 4.85259 29.4461 4.73153 28.453 4.67426C27.5561 4.6235 26.6866 4.66515 25.8236 4.92418ZM31.1539 4.04426C31.6095 3.9219 32.0625 3.70452 32.4048 3.38171C31.8503 3.58477 31.2255 3.60299 30.6202 3.57956C29.8627 3.55353 28.8669 3.52229 28.3098 4.09502C29.2509 4.14579 30.231 4.28897 31.1539 4.04426ZM22.1217 7.92971C22.0306 7.94143 21.9408 7.95314 21.8497 7.96746H21.8445C20.6326 8.14709 19.3869 8.52587 18.4354 9.31468C17.588 10.015 16.9762 11.0316 16.9268 12.1328C17.6401 11.78 18.4016 11.5132 19.15 11.262C22.0228 10.3 25.0413 9.63749 27.7175 8.17182C28.2538 7.87634 28.7797 7.54572 29.2821 7.18126C27.0186 7.94924 24.4738 7.63554 22.1217 7.92971ZM22.5473 35.0459C22.6749 36.0482 23.7227 36.6209 24.5324 37.0596C25.0244 37.3264 25.519 37.5997 25.9382 37.9785C26.3417 38.3443 26.6111 38.8012 26.8168 39.2997C27.1487 40.1093 27.3192 41.109 28.0351 41.6909C28.8422 42.3469 29.9095 41.8627 30.6905 41.4292C31.1461 41.1754 31.5991 40.9073 32.0937 40.7367C32.1874 40.7055 32.2825 40.6782 32.3775 40.656C31.5926 40.0937 30.8272 39.5002 30.1386 38.8233C28.6704 37.3772 27.5171 35.4156 27.59 33.2938C27.5965 33.1012 27.6173 32.9138 27.6459 32.7302C26.8884 34.0397 25.9226 35.465 26.2441 37.0231C26.287 37.2249 26.1881 37.4331 25.9785 37.4904C25.7898 37.5425 25.5516 37.4266 25.5099 37.2249C25.3017 36.2148 25.5334 35.219 25.9369 34.2909C26.6163 32.7315 27.8113 31.3973 28.0039 29.6531C28.2018 27.8425 27.5991 26.0892 26.8428 24.4738C26.632 24.1614 26.4393 23.836 26.2857 23.4898C25.8549 22.5278 25.7468 21.4761 25.782 20.4204C25.7455 20.5233 25.7052 20.6274 25.6713 20.7302C25.4058 21.5047 25.1949 22.3013 25.0648 23.111C24.9255 23.987 24.9255 24.8799 24.9411 25.7651C24.9762 27.6616 25.1025 29.6232 24.397 31.426C23.9024 32.6834 23.0849 33.8067 22.5473 35.0459ZM33.2236 40.3241C34.1347 39.6889 35.029 39.0238 35.8178 38.2376C37.1975 36.8656 38.274 34.9951 38.0761 32.9867C37.9746 31.9479 37.4266 31.0433 37.0166 30.1074C36.7146 29.424 36.4699 28.6756 36.4686 27.9258C36.2096 28.1406 35.9427 28.3423 35.6629 28.5259C35.2372 28.807 34.7869 29.0413 34.313 29.2288C34.0735 29.3238 33.8275 29.4045 33.5763 29.467C33.4631 29.4943 33.3381 29.5373 33.2223 29.5373C33.0973 29.5373 32.958 29.4891 32.8383 29.4592C31.8763 29.2145 30.9977 28.7224 30.218 28.1172C30.136 28.0547 30.0566 27.9896 29.9772 27.9232C29.9772 28.8057 29.6323 29.687 29.26 30.481C28.8266 31.4051 28.3723 32.3124 28.3488 33.3537C28.328 34.3313 28.6079 35.2984 29.0609 36.1601C29.9928 37.9369 31.6069 39.1956 33.2236 40.3241ZM34.0657 40.6573C34.9105 40.8786 35.6186 41.4214 36.4243 41.7677C36.8695 41.9603 37.3876 42.0866 37.8679 41.9642C38.2714 41.8627 38.5838 41.5828 38.8129 41.2431C39.3401 40.4556 39.4494 39.4741 39.9401 38.6671C40.4647 37.808 41.3576 37.3693 42.2063 36.8994C42.9352 36.4946 43.7852 35.9271 43.8985 35.0433C43.2711 33.601 42.2818 32.3293 41.8405 30.7999C41.2991 28.932 41.5177 26.9678 41.5125 25.053C41.5112 24.2031 41.45 23.3687 41.2769 22.5356C41.1246 21.8015 40.9086 21.083 40.6508 20.3788C40.6586 20.6196 40.6625 20.8617 40.6534 21.1025C40.6235 22.1686 40.3931 23.1721 39.8425 24.0924C39.7657 24.2174 39.6863 24.3423 39.6056 24.4621C39.1735 25.385 38.7947 26.3339 38.5799 27.3309C38.399 28.177 38.3339 29.0713 38.4849 29.9278C38.6346 30.7843 39.0055 31.5509 39.4325 32.2981C40.2916 33.8054 41.3121 35.4051 40.9385 37.221C40.8955 37.4227 40.6573 37.5386 40.4699 37.4865C40.2616 37.4305 40.1614 37.2197 40.2031 37.0192C40.4009 36.0612 40.0742 35.0823 39.6472 34.2337C39.3882 33.7156 39.0849 33.2223 38.7973 32.7198C38.8454 33.0244 38.8689 33.3381 38.8558 33.6596C38.8168 34.6892 38.4992 35.6928 38.0137 36.5962C37.1077 38.2961 35.6134 39.5496 34.0657 40.6573ZM49.9525 10.1269C49.851 10.0657 49.7494 10.0046 49.6466 9.94338C49.467 9.83664 49.286 9.72861 49.1064 9.61666C49.3889 9.96811 49.6258 10.3599 49.7963 10.7777C50.0111 11.3049 50.1204 11.8724 50.0879 12.4439C50.3378 12.5923 50.5786 12.755 50.8077 12.9333C50.4146 12.1926 50.2193 11.3166 50.0293 10.4679C50.0046 10.3534 49.9785 10.2402 49.9525 10.1269ZM46.9404 6.40286C47.2672 7.00553 47.5978 7.56525 48.0182 8.00911C48.4764 8.49203 49.0843 8.87602 49.7364 9.26782C49.5399 8.58054 49.2821 7.96225 48.8396 7.48715C48.358 6.96909 47.6889 6.65799 46.9404 6.40286ZM42.2922 3.2138C42.8051 3.7618 43.3023 4.26945 43.8581 4.61178C44.3788 4.93329 45.014 5.15457 45.6557 5.35112C45.26 4.67687 44.8265 4.08851 44.2278 3.72405C43.6733 3.38562 43.0107 3.26326 42.2922 3.2138ZM36.9164 1.4878C37.5164 1.84576 38.0944 2.16466 38.6814 2.33127C39.3192 2.5109 40.0521 2.53954 40.7784 2.54995C40.2538 2.05532 39.6941 1.63749 39.0524 1.45265C38.3833 1.25871 37.6544 1.3316 36.9164 1.4878ZM31.2854 1.19493C31.9883 1.39018 32.7029 1.5698 33.368 1.57501C33.9772 1.57891 34.6111 1.43313 35.2789 1.2574C34.6085 0.900749 33.9239 0.627401 33.2223 0.627401C32.5636 0.627401 31.918 0.86821 31.2854 1.19493ZM25.864 2.54605C26.5252 2.53303 27.1852 2.49528 27.7657 2.33127C28.3944 2.15425 29.0114 1.8002 29.657 1.4123C28.9645 1.26131 28.3033 1.19753 27.6876 1.36674C27.0081 1.55288 26.4289 2.00195 25.864 2.54605ZM20.8955 5.178C21.6323 4.97755 22.3235 4.77319 22.8962 4.43215C23.4117 4.12496 23.875 3.685 24.3462 3.20208C23.5548 3.24113 22.8233 3.35568 22.2193 3.72405C21.6726 4.05858 21.2639 4.57664 20.8955 5.178ZM19.068 8.22909C19.8646 7.80996 20.725 7.57045 21.6154 7.43117C22.0931 6.68012 22.7062 6.03059 23.4221 5.50081C24.6482 4.59226 26.1022 4.12756 27.6082 4.08591C28.0781 3.20729 29.1884 2.98731 30.1061 2.99642C30.9899 3.00553 32.0026 3.14741 32.7172 2.55516C32.738 2.50309 32.7732 2.46665 32.8122 2.44191C32.8253 2.40417 32.8461 2.37163 32.8708 2.3495C32.9411 2.27791 33.0517 2.25708 33.152 2.28181C33.1754 2.27921 33.2001 2.2766 33.2249 2.27921C33.2483 2.27791 33.273 2.27921 33.2965 2.28181C33.3967 2.25578 33.5073 2.27921 33.5789 2.3521C33.6049 2.37423 33.6232 2.40547 33.6362 2.44322C33.6765 2.46665 33.7091 2.50309 33.7299 2.55646C34.4458 3.14872 35.4559 3.00683 36.341 2.99772C37.2587 2.98861 38.3651 3.20859 38.8376 4.08201C39.6186 4.09372 40.397 4.22779 41.1324 4.49333C42.6489 5.04003 43.9688 6.07354 44.8344 7.43248C44.9021 7.44419 44.9723 7.45461 45.0413 7.46762C45.8471 7.61211 46.6541 7.85552 47.3856 8.2356C46.9001 7.66027 46.5265 6.95737 46.1634 6.2727C46.1386 6.22714 46.1152 6.18158 46.0905 6.13603C46.0436 6.12171 45.9954 6.10739 45.9486 6.09437C45.1142 5.84706 44.2499 5.59063 43.5314 5.14676C42.8415 4.71982 42.2415 4.0781 41.6622 3.45721C41.5776 3.36609 41.493 3.27498 41.4071 3.18516C41.2991 3.18386 41.191 3.18256 41.0817 3.18126C40.2161 3.17214 39.3218 3.16304 38.5135 2.93524C37.7403 2.71657 36.9932 2.26749 36.2707 1.83144C36.1978 1.78718 36.1263 1.74422 36.0534 1.69997C35.9727 1.72079 35.892 1.74292 35.8126 1.76505C35.0133 1.97982 34.1868 2.20111 33.398 2.20111C33.3876 2.20111 33.3759 2.20111 33.3654 2.20111C32.5285 2.1946 31.6694 1.95379 30.8389 1.72079C30.7296 1.69086 30.6215 1.65962 30.5148 1.62968C30.4029 1.69607 30.2909 1.76375 30.179 1.83144C29.4566 2.26619 28.7107 2.71657 27.9362 2.93524C27.1279 3.16304 26.2336 3.17214 25.368 3.18126C25.3251 3.18126 25.2808 3.18256 25.2379 3.18256C25.2053 3.2164 25.1741 3.25025 25.1416 3.28409C24.5467 3.90628 23.931 4.5493 23.2177 4.97364C22.5096 5.39408 21.6531 5.62578 20.8253 5.84836C20.7029 5.8809 20.5818 5.91344 20.4621 5.94728C20.4035 6.05532 20.3462 6.16466 20.2877 6.274C19.9245 6.95347 19.5522 7.65506 19.068 8.22909ZM16.9333 9.13244C17.4995 8.7862 18.0228 8.43606 18.4289 8.00911C18.8962 7.51578 19.2542 6.87927 19.6173 6.19851C18.9535 6.42369 18.3586 6.70745 17.9108 7.16824C17.4201 7.67198 17.1481 8.36447 16.9333 9.13244ZM15.8529 12.5337C15.7644 12.6899 15.6642 12.8409 15.5561 12.9893C15.81 12.7849 16.0781 12.6014 16.358 12.4374C16.3267 11.8646 16.4374 11.2984 16.6521 10.7712C16.8213 10.356 17.0569 9.96681 17.3394 9.61666C17.1598 9.7273 16.9788 9.83534 16.7992 9.94208C16.7693 9.9603 16.7393 9.97722 16.7094 9.99545C16.7055 10.0137 16.7003 10.0332 16.6964 10.0514C16.4881 10.9053 16.2733 11.7891 15.8529 12.5337ZM13.9186 13.8744C14.4692 13.3303 14.9808 12.8083 15.3075 12.2278C15.5991 11.711 15.7865 11.094 15.9479 10.4666C15.2737 10.904 14.6879 11.3765 14.3391 12.0117C14.0436 12.5532 13.9434 13.1884 13.9186 13.8744ZM13.9173 14.7569C13.9199 14.8806 13.9226 15.0055 13.9265 15.1305C13.9291 15.2125 13.9304 15.2958 13.933 15.3791C13.9759 15.2086 14.028 15.0394 14.0957 14.8741C14.1829 14.6645 14.2909 14.464 14.4094 14.2701C14.3469 14.3326 14.2831 14.3951 14.2206 14.4562C14.1191 14.5565 14.0176 14.6554 13.9173 14.7569ZM12.3931 19.3075C12.7211 18.7309 13.0101 18.1725 13.1533 17.6089C13.3251 16.9333 13.3238 16.1614 13.3056 15.4012C12.8552 15.9115 12.4803 16.4556 12.3163 17.0674C12.1276 17.769 12.22 18.5343 12.3931 19.3075ZM12.0521 24.9828C12.2642 24.2551 12.4608 23.5119 12.4699 22.8181C12.4777 22.2284 12.3436 21.6102 12.1744 20.9619C11.8074 21.657 11.521 22.3677 11.521 23.0927C11.521 23.7332 11.7462 24.3632 12.0521 24.9828ZM13.1533 28.5753C12.9893 27.9284 12.6365 27.2906 12.2486 26.6228C12.0937 27.3023 12.0221 27.9518 12.1705 28.5636C12.341 29.2652 12.7797 29.8744 13.3108 30.4719C13.3199 29.8145 13.3017 29.1585 13.1533 28.5753ZM13.9252 31.0524C13.9239 31.0771 13.9239 31.1032 13.9239 31.1279C13.9512 31.1565 13.9785 31.1852 14.0059 31.2138C14.1516 31.3661 14.2987 31.5184 14.4432 31.6746C14.3482 31.4481 14.2675 31.2151 14.2024 30.9808C14.1165 30.6762 14.0553 30.3664 14.015 30.0553C13.8497 28.8214 14.0059 27.5457 14.2128 26.3274C14.4862 24.7172 14.8793 23.1058 14.7999 21.4605C14.7283 19.9831 14.0866 18.6267 13.8692 17.178C13.8432 17.3759 13.808 17.5724 13.7585 17.7638C13.5581 18.5565 13.1103 19.3231 12.6782 20.0651C12.656 20.1028 12.6339 20.1406 12.6118 20.1796C12.6235 20.2239 12.6352 20.2668 12.6469 20.3111C12.8721 21.1442 13.1051 22.0046 13.0934 22.8272C13.0817 23.6902 12.8239 24.5688 12.574 25.4201C12.5402 25.5373 12.5063 25.6531 12.4725 25.769C12.5402 25.8874 12.6092 26.0046 12.6769 26.123C13.109 26.865 13.5568 27.6316 13.7572 28.4243C13.972 29.2548 13.9486 30.1686 13.9252 31.0524ZM15.7462 35.5822C15.577 34.8324 15.3999 34.1269 15.0784 33.5281C14.7947 32.9984 14.3755 32.5155 13.9121 32.0234C13.92 32.8187 14.002 33.5555 14.3404 34.1725C14.6541 34.7426 15.1578 35.1813 15.7462 35.5822ZM19.5067 39.78C19.18 39.1774 18.8493 38.6176 18.4289 38.1738C17.9707 37.6909 17.3628 37.3069 16.7107 36.9151C16.9073 37.6023 17.165 38.2206 17.6075 38.6957C18.0892 39.2138 18.7582 39.5249 19.5067 39.78ZM20.5011 40.0898C21.014 40.2421 21.5373 40.3983 22.0319 40.5975C21.5399 40.1562 21.0986 39.6551 20.7172 39.1097C20.5519 38.8715 20.3983 38.6255 20.2564 38.3716C19.8113 37.5698 19.4924 36.6899 19.3518 35.7813C19.1774 34.6671 19.2359 33.5164 18.9522 32.4178C18.4771 30.5864 17.2314 29.0947 16.2838 27.4937C15.7709 26.6228 15.2815 25.6036 15.1071 24.5675C14.9691 25.3628 14.8064 26.1569 14.6866 26.9548C14.464 28.4152 14.3859 29.9603 14.9313 31.3648C15.3518 32.4491 16.1666 33.4422 17.2938 33.8249C17.6401 33.9421 17.4904 34.494 17.1416 34.3755C16.85 34.2753 16.5688 34.1464 16.3085 33.9837C16.1302 33.8718 15.9662 33.7429 15.8074 33.6063C16.0911 34.2649 16.2577 35.0003 16.4178 35.7162C16.4439 35.8308 16.4686 35.9453 16.4946 36.0586C16.5962 36.1198 16.6977 36.1796 16.8005 36.2421C17.5438 36.6847 18.3117 37.1442 18.8832 37.7468C19.4598 38.3547 19.8802 39.1474 20.2877 39.9141C20.3124 39.9596 20.3358 40.0052 20.3606 40.0508C20.4061 40.0612 20.4543 40.0755 20.5011 40.0898ZM24.1549 42.9691C23.642 42.4211 23.1448 41.9134 22.589 41.5698C22.0683 41.2483 21.4331 41.0283 20.7914 40.8305C21.1871 41.5047 21.6206 42.0931 22.2193 42.4575C22.7738 42.796 23.4364 42.9196 24.1549 42.9691ZM29.5308 44.6951C28.9307 44.3371 28.3528 44.0182 27.7657 43.8516C27.1279 43.672 26.3951 43.6433 25.6687 43.6329C26.1933 44.1276 26.753 44.5454 27.3947 44.7302C28.0638 44.9229 28.7927 44.8513 29.5308 44.6951ZM35.1617 44.988C34.4588 44.7927 33.7442 44.6131 33.0791 44.6079C32.4751 44.6014 31.8373 44.7485 31.1682 44.9242C31.8386 45.2808 32.5233 45.5542 33.2249 45.5542C33.8835 45.5555 34.5291 45.3147 35.1617 44.988ZM40.5831 43.6368C39.9219 43.6499 39.262 43.6876 38.6814 43.8516C38.0527 44.0286 37.4357 44.3827 36.7901 44.7706C37.4826 44.9216 38.1438 44.9854 38.7595 44.8161C39.439 44.63 40.0182 44.1809 40.5831 43.6368ZM42.52 41.7247C42.2024 41.8822 41.8809 42.0319 41.5568 42.1712L41.6023 42.2805C41.4435 42.3378 41.2821 42.3898 41.1181 42.4367C40.9749 42.4784 40.8292 42.5148 40.6834 42.5447C40.591 42.5669 40.4985 42.5838 40.4048 42.602C40.1354 42.6515 39.9805 42.3521 40.0729 42.1738C40.1041 42.1139 40.164 42.067 40.2525 42.0514C40.41 42.0228 40.5675 41.9876 40.7224 41.9499C41.4969 41.7559 42.2362 41.437 42.9105 41.0179C42.9248 40.9645 42.9522 40.9125 42.9977 40.8643C43.0003 40.8617 43.0029 40.8591 43.0055 40.8565C44.2981 39.5353 44.7029 37.6284 44.2083 35.8842C43.8399 36.5415 43.1565 37.027 42.4953 37.3941C41.9902 37.6739 41.4553 37.9265 41.0101 38.2987C40.574 38.6658 40.3007 39.1305 40.1002 39.659C39.7709 40.5298 39.5353 41.5164 38.7725 42.1295C37.8926 42.8376 36.7563 42.5864 35.8282 42.1152C35.3466 41.8692 34.8923 41.5646 34.3925 41.3589C34.0683 41.2262 33.7273 41.1507 33.3824 41.1298C33.286 41.1793 33.152 41.178 33.0583 41.1285C32.9802 41.1311 32.9021 41.1363 32.8253 41.1455C31.7501 41.2691 30.9092 42.0892 29.9017 42.4211C29.4123 42.5812 28.8643 42.6437 28.3645 42.4979C27.9011 42.3612 27.5262 42.0514 27.2398 41.67C26.645 40.8734 26.5369 39.8555 26.0436 39.0081C25.5086 38.0905 24.4712 37.7169 23.6043 37.1936C23.0628 36.8643 22.5421 36.4269 22.2376 35.8777C22.2141 35.9571 22.1894 36.0364 22.1699 36.1171C21.7442 37.7872 22.2336 39.6212 23.4403 40.8539C23.4559 40.8695 23.4702 40.8877 23.4819 40.9047C23.5093 40.9411 23.5249 40.9789 23.5353 41.0179C24.0885 41.3628 24.6821 41.6401 25.3056 41.834C25.5776 41.9186 25.549 42.2675 25.3576 42.3703C25.0088 42.2311 24.6443 42.0722 24.2525 41.8874C24.0547 41.7937 23.8568 41.6974 23.6629 41.5997C24.056 41.946 24.4243 42.3404 24.7849 42.727C24.8695 42.8181 24.9554 42.9092 25.04 43.0003C25.1481 43.0016 25.2561 43.0029 25.3654 43.0042C26.231 43.0133 27.1253 43.0225 27.9336 43.2502C28.7068 43.4689 29.454 43.918 30.1764 44.3541C30.2493 44.3983 30.3209 44.4413 30.3938 44.4855C30.4745 44.4647 30.5552 44.4426 30.6346 44.4204C31.4338 44.2057 32.259 43.9844 33.0478 43.9844C33.0583 43.9844 33.07 43.9844 33.0804 43.9844C33.9173 43.9909 34.7764 44.2317 35.6069 44.4647C35.7162 44.4946 35.8243 44.5259 35.931 44.5558C36.043 44.4894 36.1549 44.4217 36.2668 44.3541C36.9893 43.9193 37.7351 43.4689 38.5096 43.2502C39.3179 43.0225 40.2122 43.0133 41.0778 43.0042C41.1207 43.0042 41.165 43.0029 41.2079 43.0029C41.2405 42.9691 41.273 42.9352 41.3043 42.9014C41.6948 42.4953 42.0931 42.0814 42.52 41.7247ZM45.5516 41.0049C44.8148 41.2053 44.1237 41.4097 43.5509 41.7507C43.0355 42.0579 42.5721 42.4979 42.1009 42.9808C42.8923 42.9417 43.6238 42.8272 44.2278 42.4588C44.7745 42.1243 45.1832 41.6062 45.5516 41.0049ZM49.5151 37.0504C48.9489 37.3967 48.4256 37.7468 48.0195 38.1738C47.5522 38.6671 47.1943 39.3036 46.8311 39.9844C47.495 39.7592 48.0898 39.4754 48.5376 39.0146C49.027 38.5109 49.2991 37.8184 49.5151 37.0504ZM50.5942 33.6479C50.5968 33.644 50.5994 33.6388 50.602 33.6349C50.2219 33.9551 49.7885 34.2089 49.3069 34.3729C48.958 34.4914 48.8083 33.9395 49.1546 33.8223C49.4266 33.7299 49.6817 33.601 49.9213 33.4422C50.9131 32.7849 51.5249 31.6433 51.7761 30.5018C52.1172 28.9476 51.8438 27.3244 51.5613 25.782C51.4871 25.3785 51.409 24.9723 51.3388 24.5662C51.1006 26.0918 50.1829 27.5002 49.3576 28.7732C48.8083 29.618 48.2486 30.4679 47.8477 31.3947C47.6485 31.8555 47.4963 32.3384 47.4025 32.8305C47.2893 33.4292 47.2633 34.041 47.2177 34.6489C47.1396 35.6785 46.9652 36.6625 46.5591 37.6154C46.3443 38.1204 46.0761 38.602 45.765 39.0524C45.5568 39.3583 45.329 39.6512 45.0804 39.9271C44.8174 40.2213 44.535 40.4959 44.2343 40.7537C44.686 40.591 45.1585 40.4621 45.6232 40.3371C45.7455 40.3046 45.8653 40.2721 45.9863 40.2382C46.0449 40.1302 46.1022 40.0208 46.1608 39.9115C46.5682 39.1448 46.9886 38.3508 47.5652 37.7442C48.1367 37.1416 48.9047 36.6834 49.6479 36.2408C49.6778 36.2226 49.7078 36.2057 49.7377 36.1874C49.7416 36.1692 49.7468 36.151 49.7507 36.1315C49.959 35.2763 50.1738 34.3938 50.5942 33.6479ZM52.5285 32.3085C51.9779 32.8526 51.4663 33.3746 51.1396 33.9564C50.848 34.4732 50.6606 35.0901 50.4992 35.7175C51.1734 35.2802 51.7592 34.8077 52.108 34.1725C52.4048 33.6297 52.5037 32.9945 52.5285 32.3085ZM52.5311 31.426C52.5285 31.3023 52.5259 31.1774 52.522 31.0524C52.4998 30.1686 52.4764 29.2548 52.6873 28.4204C52.8877 27.6277 53.3355 26.861 53.7677 26.1191C53.7898 26.0814 53.8119 26.0423 53.834 26.0046C53.8223 25.9603 53.8106 25.9173 53.7989 25.8744C53.5737 25.0413 53.3407 24.1809 53.3524 23.357C53.3641 22.4953 53.6219 21.6154 53.8718 20.7654C53.9056 20.6482 53.9395 20.5324 53.9733 20.4165C53.9056 20.2981 53.8366 20.1796 53.7677 20.0625C53.3355 19.3205 52.889 18.5539 52.6873 17.7611C52.6391 17.5724 52.6053 17.3785 52.5779 17.1819C52.5337 17.4787 52.4699 17.7742 52.3957 18.0644C52.2122 18.7986 51.9636 19.5158 51.8034 20.2564C51.6316 21.0504 51.6069 21.864 51.6642 22.6723C51.7813 24.2994 52.2135 25.8848 52.4061 27.5028C52.505 28.3202 52.535 29.1507 52.4361 29.9642C52.4361 29.9642 52.4361 29.9655 52.4348 29.9668C52.3567 30.6189 52.1952 31.2594 51.9193 31.8685C51.8685 31.9805 51.8126 32.0911 51.754 32.1992C51.9102 32.0391 52.0703 31.8816 52.2291 31.7267C52.328 31.6264 52.4296 31.5262 52.5311 31.426ZM31.8516 25.053C31.8529 25.0543 31.8542 25.0543 31.8542 25.0556C32.1354 25.2847 32.3931 25.0465 32.6495 24.9164C32.8279 24.8253 33.0374 24.7979 33.221 24.8812C33.4058 24.7966 33.6154 24.8253 33.7937 24.9164C34.0488 25.0465 34.3065 25.2847 34.5877 25.0556C34.589 25.0543 34.5903 25.0543 34.5929 25.053C34.6307 25.0088 34.6801 25.014 34.7179 25.04C34.753 25.0557 34.7777 25.0843 34.783 25.1207C34.7895 25.1468 34.7843 25.1728 34.7634 25.1988C34.6853 25.316 34.6346 25.4422 34.5382 25.5516C34.4354 25.6661 34.3078 25.7638 34.1699 25.834C34.0228 25.9069 33.864 25.9512 33.7 25.9655C33.6193 25.9733 33.5386 25.972 33.4566 25.9642C33.3798 25.9564 33.2965 25.9226 33.2197 25.9226C33.1429 25.9226 33.0609 25.9564 32.9828 25.9642C32.8942 25.9733 32.8044 25.9733 32.7172 25.9642C32.5597 25.9473 32.4113 25.9043 32.2694 25.834C32.1328 25.7638 32.0039 25.6661 31.9011 25.5516C31.8048 25.4422 31.754 25.316 31.6759 25.1988C31.6564 25.1728 31.6499 25.1468 31.6564 25.1207C31.6629 25.0843 31.6876 25.0557 31.7214 25.04C31.7618 25.0127 31.8113 25.0088 31.8516 25.053ZM32.4191 25.3121C32.4569 25.3108 32.4959 25.3095 32.5324 25.303C32.7706 25.2665 32.9958 25.1728 33.221 25.2756C33.4461 25.1728 33.6713 25.2665 33.9095 25.303C33.9473 25.3095 33.9863 25.3108 34.0241 25.3121C33.7911 25.1988 33.5425 24.9463 33.2795 25.1077C33.2444 25.1285 33.1988 25.1285 33.1637 25.1077C32.9007 24.9463 32.6508 25.1988 32.4191 25.3121ZM32.1965 25.5138C32.2551 25.562 32.3189 25.6023 32.3866 25.6362C32.5194 25.7026 32.6665 25.7377 32.8148 25.7429C32.8929 25.7455 32.9723 25.7416 33.0504 25.726C33.1038 25.7143 33.165 25.6843 33.221 25.6843C33.2873 25.6843 33.3589 25.7208 33.4253 25.7325C33.4995 25.7442 33.5763 25.7468 33.6505 25.7442C33.7976 25.7364 33.9447 25.6961 34.0748 25.6284C34.1347 25.5971 34.192 25.5581 34.2467 25.5151C34.2102 25.5229 34.1751 25.5321 34.1386 25.536C34.0059 25.5503 33.877 25.5334 33.7468 25.5021C33.5906 25.467 33.4279 25.4097 33.2795 25.5021C33.2444 25.5229 33.1975 25.5229 33.1637 25.5021C33.0075 25.4071 32.8331 25.4722 32.6704 25.5086C32.5493 25.536 32.4269 25.5477 32.3046 25.536C32.2681 25.5308 32.2317 25.5216 32.1965 25.5138ZM34.6632 26.1295C33.7716 26.6567 32.6717 26.6567 31.78 26.1295C31.6108 26.0293 31.4572 26.2922 31.6264 26.3925C32.6105 26.973 33.8327 26.973 34.8168 26.3925C34.986 26.2935 34.8324 26.0293 34.6632 26.1295ZM32.7432 22.917C32.8227 22.9287 32.8968 22.9483 32.9697 22.9795C33.0296 23.0068 33.0895 23.0537 33.1559 23.0537C33.2275 23.0537 33.2925 23.0003 33.3563 22.9743C33.4305 22.9444 33.5073 22.9248 33.5867 22.9157C33.7429 22.8949 33.89 22.9209 34.0345 22.9782C34.028 22.9496 34.0111 22.9261 33.9811 22.9118C33.8484 22.8519 33.9642 22.6541 34.097 22.7153C34.2154 22.7686 34.2753 22.9014 34.2649 23.0277C34.2571 23.1721 34.1621 23.2815 34.0488 23.3622C33.916 23.4559 33.7533 23.5145 33.6023 23.5665C33.4657 23.6121 33.3004 23.6876 33.1559 23.6876C33.0895 23.6876 33.027 23.6642 32.9619 23.6447C32.8734 23.6186 32.7823 23.5926 32.6951 23.56C32.5428 23.508 32.384 23.4468 32.2538 23.3518C32.1432 23.2724 32.0508 23.1565 32.0469 23.0146C32.0417 22.891 32.1028 22.7647 32.2174 22.7127C32.3501 22.6528 32.4673 22.8493 32.3332 22.9092C32.302 22.9235 32.2877 22.947 32.2812 22.9743C32.4296 22.9183 32.5831 22.8949 32.7432 22.917ZM32.7914 23.1578C32.6625 23.1227 32.5233 23.1292 32.3957 23.1734C32.4413 23.2047 32.492 23.2307 32.5402 23.2528C32.6482 23.3036 32.7589 23.344 32.8721 23.3778C32.9593 23.4051 33.0674 23.4559 33.1559 23.4572C33.2483 23.4585 33.3706 23.3999 33.4579 23.3726C33.5711 23.3362 33.6817 23.2958 33.7898 23.2437C33.8314 23.2229 33.877 23.2008 33.9186 23.1734C33.7937 23.1279 33.6518 23.1214 33.5229 23.1565C33.3941 23.1904 33.2925 23.2802 33.1559 23.2802C33.0218 23.2828 32.9177 23.1917 32.7914 23.1578ZM31.6551 19.4572C30.0579 19.987 28.9346 18.8038 28.9346 18.8038C28.6131 19.2424 27.7071 18.9704 27.7071 18.9704C27.9453 19.2333 28.7472 19.3036 28.7472 19.3036C28.4959 19.4143 27.7839 19.4598 27.7839 19.4598C28.151 19.7332 29.083 19.6512 29.083 19.6512L28.4217 19.9206C31.0979 20.3202 31.6551 19.4572 31.6551 19.4572ZM37.5125 18.8038C37.5125 18.8038 36.3892 19.987 34.7921 19.4572C34.7921 19.4572 35.3492 20.3202 38.0254 19.9206L37.3641 19.6512C37.3641 19.6512 38.2961 19.7332 38.6632 19.4598C38.6632 19.4598 37.9512 19.413 37.7 19.3036C37.7 19.3036 38.5018 19.2333 38.74 18.9704C38.74 18.9704 37.834 19.2424 37.5125 18.8038ZM32.1549 20.276C32.3241 20.8955 32.4113 21.5386 32.4204 22.2024C32.587 21.5581 32.5949 20.8695 32.479 20.2044C32.0547 17.7742 30.3781 16.5506 27.9935 17.5242C30.3951 17.1793 31.5028 17.9681 32.1549 20.276ZM34.2922 20.276C34.9431 17.9707 36.0495 17.178 38.4549 17.5242C36.0729 16.5519 34.3938 17.7716 33.9694 20.2044C33.8523 20.8695 33.8601 21.5581 34.028 22.2024C34.0358 21.5386 34.123 20.8955 34.2922 20.276Z" fill="#FFD700"/>
</g>
</svg>
