<svg width="190" height="60" viewBox="0 0 190 60" fill="none" xmlns="http://www.w3.org/2000/svg">
<g id="Logo">
<path id="Vector" d="M56.1177 44.7971C55.4182 46.0147 54.1941 46.8095 52.935 47.5366C52.5852 48.9064 52.1655 50.2762 51.1862 51.257C50.2769 52.1702 49.0178 52.6099 47.7237 52.9651C47.0767 54.0981 46.3422 55.1973 45.223 55.8568C44.0163 56.5671 42.5474 56.6516 41.0959 56.6855C40.0816 57.7001 39.0149 58.664 37.6683 59.0192C37.2486 59.1375 36.8114 59.1714 36.3917 59.1714C35.5348 59.1714 34.643 58.9853 33.7686 58.7655C32.5794 59.425 31.3553 60 30.0087 60C28.5922 60 27.3157 59.3743 26.074 58.664C24.6925 59.0023 23.2935 59.2728 21.9295 58.8839C20.6179 58.5118 19.5861 57.6156 18.6418 56.6685C17.2778 56.6347 15.9137 56.5163 14.777 55.8568C13.5879 55.1466 12.8184 53.9459 12.1364 52.7114C10.7374 52.3055 9.35587 51.832 8.39405 50.8343C7.50219 49.9042 7.08249 48.6528 6.7852 47.3675C5.63101 46.6742 4.52929 45.9132 3.89974 44.7971C3.21772 43.6133 3.20023 42.1759 3.23521 40.7723C2.22093 39.7407 1.24162 38.6584 0.909358 37.3055C0.612069 36.1049 0.874381 34.8365 1.22413 33.5851C0.577091 32.4521 0 31.2852 0 30C0 28.5964 0.682017 27.3281 1.39901 26.0936C1.03177 24.7238 0.716994 23.3033 1.08423 21.9504C1.43399 20.7328 2.27339 19.752 3.20024 18.8388C3.18275 17.5536 3.27019 16.2852 3.88225 15.2029C4.58176 13.9853 5.80589 13.1905 7.06499 12.4634C7.41475 11.0936 7.83445 9.72379 8.81376 8.74296C9.72311 7.82977 10.9822 7.39008 12.2763 7.03495C12.9233 5.90192 13.6578 4.80271 14.777 4.14318C15.9837 3.43292 17.4526 3.34837 18.9041 3.31454C19.9184 2.29989 20.9851 1.33596 22.3317 0.980832C23.5908 0.642614 24.9198 0.896278 26.2314 1.2345C27.4206 0.57497 28.6447 0 29.9913 0C31.4078 0 32.6844 0.625704 33.926 1.33596C35.3075 0.997744 36.7065 0.72717 38.0705 1.09921C39.3821 1.47125 40.4139 2.36753 41.3582 3.31454C42.7222 3.34837 44.0863 3.46674 45.223 4.12627C46.4121 4.83653 47.1816 6.0372 47.8636 7.2717C49.2626 7.67757 50.6441 8.15107 51.6059 9.14882C52.4978 10.0789 52.9175 11.3303 53.2148 12.6156C54.369 13.3089 55.4707 14.0699 56.1003 15.186C56.7823 16.3698 56.7998 17.8072 56.7648 19.2108C57.7791 20.2424 58.7409 21.3247 59.0906 22.6776C59.3879 23.8782 59.1256 25.1466 58.7759 26.398C59.4229 27.531 60 28.6979 60 29.9831C60 31.3867 59.318 32.655 58.601 33.8895C58.9857 35.2593 59.283 36.6798 58.9158 38.0327C58.566 39.2503 57.7266 40.2311 56.7998 41.1443C56.7998 42.4464 56.7298 43.7148 56.1177 44.7971ZM57.9889 34.9211C57.5517 35.6652 57.167 36.3923 56.9746 37.1195C56.7473 37.9989 56.7473 38.9966 56.7648 39.9944C57.3769 39.3348 57.8665 38.6246 58.0938 37.8298C58.3562 36.9166 58.2337 35.9188 57.9889 34.9211ZM58.4611 27.5479C58.1813 28.4949 57.919 29.4589 57.9015 30.3551C57.884 31.1161 58.0764 31.9278 58.3037 32.7734C58.7934 31.8771 59.1781 30.947 59.1781 30C59.1606 29.1714 58.8633 28.3427 58.4611 27.5479ZM56.9746 22.8805C57.202 23.726 57.6741 24.5547 58.1988 25.4171C58.4086 24.5378 58.4961 23.6922 58.3037 22.8974C58.0764 21.9842 57.4818 21.1894 56.7648 20.4115C56.7473 21.274 56.7648 22.1195 56.9746 22.8805ZM53.4946 13.7824C53.7219 14.7632 53.9668 15.6764 54.3865 16.4543C54.7712 17.1477 55.3308 17.7734 55.9604 18.416C55.9429 17.3844 55.8379 16.4205 55.3833 15.6257C54.9636 14.8647 54.2815 14.2897 53.4946 13.7824ZM55.8205 19.4476C55.7855 19.4138 55.733 19.363 55.6981 19.3292C55.7855 19.5321 55.8554 19.752 55.9254 19.9718C55.9254 19.8703 55.9254 19.7689 55.9254 19.6505C55.9254 19.6167 55.9254 19.5829 55.9254 19.549C55.9079 19.5321 55.8554 19.4814 55.8205 19.4476ZM54.0367 27.3112C54.1417 26.3303 54.404 25.3833 54.7013 24.4363C54.9811 23.5062 55.2783 22.5761 55.3308 21.6122C55.3833 20.7328 55.2084 19.8703 54.7537 19.0924C54.334 18.3822 53.7219 17.7565 53.0399 17.2661C51.4311 16.133 49.4725 15.5581 47.6013 14.9831C43.824 13.8331 39.8892 12.8861 36.4617 10.9245C34.8528 10.0113 33.3314 8.84442 32.1247 7.47464C31.9324 7.28862 31.74 7.08568 31.5651 6.88275C31.9324 7.52537 32.3871 8.10034 32.8942 8.64149C35.5873 11.4825 39.557 12.6494 42.8971 14.5941C44.5759 15.575 46.1148 16.7756 47.2865 18.3145C48.3008 19.6505 49.0003 21.1725 49.3326 22.7959C49.3326 22.8129 49.3326 22.8129 49.35 22.8298C49.3675 22.8974 49.385 22.9481 49.385 22.9989C49.4025 23.1172 49.42 23.2187 49.4375 23.3371C49.455 23.3878 49.4725 23.4216 49.455 23.4893C49.4375 23.7599 49.4899 24.0135 49.5949 24.2841C49.8047 24.8591 50.1894 25.4002 50.6441 25.8399C51.0988 26.2965 51.6584 26.6009 52.2005 26.9729C52.7776 27.3619 53.3022 27.7847 53.7219 28.3427C53.8444 28.5118 53.9493 28.6979 54.0542 28.8839C53.9668 28.3596 53.9843 27.8354 54.0367 27.3112ZM45.5902 51.1218C45.7476 50.9357 45.8875 50.7497 46.0449 50.5637C46.7444 49.6336 47.2865 48.6189 47.6188 47.5197C48.056 46.133 48.021 44.6787 48.1959 43.2582C48.3707 41.9222 48.8079 40.6708 49.4725 39.4701C50.0845 38.3371 50.854 37.2886 51.5535 36.2063C52.2705 35.124 52.97 33.991 53.3547 32.7565C53.7219 31.6065 53.8444 30.2706 53.2673 29.1714C52.6552 27.9876 51.3611 27.4803 50.3468 26.6516C49.9096 26.2965 49.4899 25.8399 49.1752 25.3157C49.1577 25.4002 49.1402 25.4679 49.1227 25.5524C48.8604 26.5333 48.4757 27.4803 48.2308 28.4442C47.986 29.3912 47.8286 30.4059 48.1084 31.3698C48.4057 32.3168 49.1577 32.9932 49.7697 33.7542C50.3818 34.5321 50.8365 35.4791 50.6091 36.4769C50.6091 36.5107 50.5917 36.5445 50.5742 36.5784C50.5567 36.9504 49.9446 37.0688 49.8222 36.646C49.4025 35.2255 48.2134 34.2446 47.0941 33.3145C46.4821 32.8072 45.87 32.2999 45.3629 31.708C45.2929 31.6234 45.223 31.5389 45.153 31.4374C45.153 31.5727 45.153 31.708 45.1355 31.8433C45.1355 31.8602 45.1355 31.894 45.1355 31.9109C45.7301 32.5705 46.3247 33.2469 46.8318 33.9741C47.8461 35.3777 48.5981 37.018 48.5981 38.743C48.5981 40.2818 47.9161 41.7869 46.622 42.717C46.4471 42.8354 46.1848 42.7508 46.0973 42.5817C45.9924 42.3957 46.0624 42.1928 46.2372 42.0744C46.8668 41.6347 47.304 40.9752 47.5663 40.2649C48.5281 37.5592 46.8143 35.0056 45.0481 32.9425C44.9082 34.0417 44.6808 35.1409 44.5409 36.2401C44.3661 37.593 44.3136 38.9628 44.6983 40.2988C45.0481 41.5163 45.6951 42.6494 46.587 43.5795C47.0417 44.053 46.3072 44.7463 45.87 44.2728C44.8208 43.1905 44.0513 41.8546 43.6666 40.4002C43.2469 38.7937 43.3693 37.1702 43.6141 35.5468C43.824 34.1094 44.1387 32.6888 44.1387 31.2345C44.1387 30.3213 44.0163 29.425 43.7715 28.5457C43.7365 28.478 43.7015 28.4104 43.7015 28.3258C43.6316 28.0891 43.5616 27.8523 43.4742 27.6325C42.6348 25.2649 40.991 23.2694 38.84 21.8827C38.84 21.8827 38.8225 21.8658 38.805 21.8658C39.0673 22.2717 39.3296 22.6945 39.557 23.1342C39.5745 23.1511 39.5745 23.168 39.592 23.2018C40.1865 24.2841 40.6762 25.4171 41.0959 26.5671C41.4631 27.5986 41.7604 28.664 41.9353 29.7294C42.1277 30.9301 42.1626 32.1308 42.1452 33.3484C42.0927 35.8512 41.9003 38.4386 42.9496 40.7892C43.8939 42.92 45.5028 44.7802 45.94 47.1139C46.2023 48.4837 46.0799 49.8703 45.5902 51.1218ZM14.2874 46.2683C15.0044 44.0361 16.6307 42.2266 17.3652 40.0113C18.1871 37.5423 17.8374 34.9042 17.8549 32.3675C17.8723 30.0846 18.362 27.8861 19.2189 25.7554C19.5686 24.9098 19.9534 24.0643 20.3906 23.2525C20.408 23.2018 20.4255 23.1511 20.4605 23.1173C20.6878 22.7114 20.9327 22.2886 21.1775 21.8997C20.8977 22.0688 20.6354 22.2548 20.3731 22.4577C18.397 23.929 16.963 26.0428 16.2985 28.3596C16.2985 28.4442 16.281 28.5287 16.2285 28.5795C15.9137 29.7632 15.8088 30.9977 15.8962 32.2153C16.0012 33.7035 16.3509 35.1409 16.5258 36.6122C16.6832 38.0327 16.6482 39.4701 16.211 40.8399C15.7913 42.1251 15.0743 43.292 14.13 44.2728C13.6753 44.7463 12.9583 44.0361 13.413 43.5795C14.4273 42.531 15.1093 41.2289 15.4241 39.8422C15.7738 38.3033 15.5465 36.7306 15.3017 35.1917C15.1792 34.4476 15.0393 33.7035 14.9519 32.9425C14.5847 33.3653 14.2174 33.805 13.8677 34.2785C12.9583 35.5299 12.2064 36.9673 12.1539 38.5231C12.1014 39.8422 12.6086 41.2627 13.7453 42.0744C13.9027 42.1928 14.0076 42.3957 13.8852 42.5817C13.7802 42.7339 13.5354 42.8354 13.3605 42.717C12.6261 42.1928 12.1014 41.4994 11.7692 40.6877C11.1396 39.1488 11.367 37.4408 12.014 35.9527C12.6785 34.4476 13.7453 33.1623 14.847 31.9278C14.847 31.7756 14.8295 31.6235 14.8295 31.4713C14.7421 31.5727 14.6721 31.6742 14.5847 31.7756C14.0775 32.3506 13.483 32.841 12.8884 33.3484C11.7867 34.2785 10.58 35.2762 10.1603 36.6798C10.0379 37.1026 9.42583 36.9673 9.40834 36.6122C9.39085 36.5784 9.37336 36.5445 9.37336 36.5107C9.11105 35.3608 9.7406 34.3461 10.4751 33.4837C11.1046 32.7396 11.7692 32.0462 11.9615 31.0823C12.1714 30.1015 11.944 29.0868 11.6642 28.1398C11.4019 27.2435 11.0347 26.2965 10.8073 25.3495C10.4576 25.9076 10.0029 26.398 9.53075 26.7531C8.44652 27.5817 7.08248 28.1736 6.57534 29.5096C5.73594 31.7926 7.13495 34.2108 8.35908 36.1048C9.67065 38.1342 11.2271 40.1127 11.6817 42.531C11.944 43.9346 11.8741 45.372 12.1714 46.7587C12.4162 47.8918 12.8709 48.9741 13.5004 49.9549C13.7628 50.3777 14.0775 50.7666 14.3923 51.1556C13.8502 49.5998 13.7802 47.8749 14.2874 46.2683ZM6.03323 28.8331C6.03323 28.8501 6.03323 28.8839 6.03323 28.9008C6.05071 28.867 6.0682 28.8331 6.08569 28.7993C6.69776 27.6325 7.9044 27.0068 8.93617 26.2627C9.39085 25.9414 9.77558 25.5017 10.0904 25.0451C10.3876 24.5885 10.6325 24.0643 10.615 23.5062C10.615 23.4555 10.615 23.4047 10.6325 23.354C10.65 23.2356 10.6674 23.1342 10.6849 23.0158C10.6849 22.9651 10.6849 22.9143 10.7024 22.8467C10.7024 22.8298 10.7199 22.8298 10.7199 22.8129C11.1046 20.9526 11.979 19.2446 13.2031 17.7734C15.7389 14.7632 19.6211 13.4442 23.0137 11.6178C24.7275 10.7046 26.3538 9.62232 27.5955 8.15107C27.9277 7.76212 28.225 7.33934 28.4698 6.89966C28.3299 7.06877 28.19 7.22097 28.0326 7.39008C26.5287 9.14882 24.5351 10.5186 22.4716 11.5502C18.8342 13.3427 14.8295 14.2052 10.9822 15.4735C9.19849 16.0654 7.3448 16.7418 6.03323 18.1116C5.45614 18.7035 5.00146 19.4307 4.7916 20.2424C4.56427 21.1556 4.68668 22.1026 4.89653 22.9989C5.12387 23.9628 5.45614 24.8929 5.70096 25.8399C5.96328 26.8038 6.0682 27.8185 6.03323 28.8331ZM29.4317 14.4419C28.8721 15.7103 28.1026 16.9109 27.1408 17.9256C26.0565 19.0586 24.71 19.8534 23.346 20.6313C22.594 21.5445 21.9295 22.5254 21.3699 23.5738C21.1775 24.8253 21.0201 26.0936 21.0551 27.345C21.0726 28.4273 21.2649 29.4758 21.7896 30.4397C21.9295 30.6933 22.0869 30.947 22.2617 31.1838C22.2792 31.2176 22.3142 31.2345 22.3317 31.2683C22.8563 32.0124 23.4684 32.6888 24.0804 33.3484C25.6893 35.124 27.578 36.832 30.0262 37.3563C31.3203 37.0857 32.5095 36.46 33.5412 35.6652C34.5555 34.8873 35.4474 33.9572 36.2868 33.0102C36.7939 32.4521 37.3011 31.8771 37.7208 31.2514C37.7383 31.2176 37.7558 31.1838 37.7732 31.1669C38.0181 30.8117 38.2454 30.4228 38.4378 30.0338C38.8925 29.053 38.9974 27.9707 38.9799 26.9053C38.9799 25.7723 38.84 24.6561 38.6651 23.54C38.088 22.4915 37.4235 21.4938 36.6715 20.5806C35.0801 19.6674 33.5063 18.7204 32.3521 17.283C31.3203 15.9977 30.5159 14.5096 30.0087 12.92C29.8339 13.4611 29.659 13.9515 29.4317 14.4419ZM30.1312 9.99436C30.0962 9.87599 30.0612 9.75761 30.0262 9.63923C29.9913 9.75761 29.9563 9.87599 29.9213 9.99436C29.9738 9.97745 30.0612 9.97745 30.1312 9.99436ZM44.5759 9.53777C43.9988 8.79369 43.3168 8.15107 42.5299 7.62683C41.6205 7.01804 40.6062 6.56144 39.5395 6.30778C38.3328 6.02029 37.1087 6.05412 35.8671 6.12176C34.573 6.20632 33.2265 6.27396 32.0023 5.80045C31.8799 5.74972 31.74 5.69898 31.6176 5.63134C31.8974 6.05411 32.1947 6.47689 32.527 6.86584C33.0341 7.35626 33.6112 7.77903 34.2582 8.11725C37.441 9.70688 41.1134 9.19955 44.5759 9.53777ZM37.8782 9.8929C37.0038 9.77452 36.1119 9.60541 35.2725 9.31793C36.2868 10.0451 37.3885 10.6539 38.5252 11.1781C42.3025 12.92 46.4471 13.7148 50.3643 15.1353C50.889 15.3213 51.4136 15.5411 51.9207 15.7779C51.8508 14.1545 50.8015 12.6494 49.4025 11.77C48.1784 10.9752 46.8143 10.5862 45.3978 10.3664C45.3454 10.3664 45.2754 10.3664 45.223 10.3495C42.8097 9.99437 40.239 10.1973 37.8782 9.8929ZM36.6191 5.32694C35.8671 4.58286 34.538 4.61669 33.5063 4.65051C32.6843 4.68433 31.8449 4.65051 31.093 4.39684C31.6526 4.92108 32.457 5.22548 33.209 5.34386C34.3457 5.52988 35.4824 5.39459 36.6191 5.32694ZM30.6208 7.44081C30.7257 8.45547 30.9706 9.47013 31.3553 10.434C32.0898 12.2773 33.3839 13.7824 34.9403 15.0338C36.5666 16.3529 38.4028 17.3844 40.0991 18.602C41.7254 19.7689 43.3693 21.1556 44.1912 22.982C44.9432 24.6392 45.2055 26.5502 44.7508 28.3089C44.8907 28.8331 44.9956 29.3574 45.0656 29.8985C45.3454 30.4397 45.6602 30.947 46.0799 31.3867C46.622 31.9617 47.234 32.4521 47.8286 32.9594C48.2308 33.2976 48.633 33.6528 49.0003 34.0248C48.8604 33.8557 48.738 33.7035 48.5981 33.5513C47.951 32.8072 47.3914 32.0462 47.234 31.0654C47.0767 30.1015 47.234 29.1206 47.4789 28.1905C47.7237 27.2435 48.0909 26.3303 48.3533 25.3833C48.5806 24.5547 48.738 23.6584 48.4582 22.8298C47.6712 21.0034 46.2373 19.549 44.5934 18.4329C41.5156 16.336 37.8432 15.2198 34.8528 13.0214C33.3664 11.9391 32.1247 10.6032 31.2679 8.99662C31.023 8.5062 30.8132 7.98196 30.6208 7.44081ZM32.457 9.48704C34.4681 12.5648 38.0006 14.1037 41.2358 15.6933C42.9146 16.522 44.5584 17.4014 46.0274 18.5513C46.4646 18.9064 46.8843 19.2785 47.269 19.6843C46.8843 19.0417 46.4296 18.4498 45.94 17.9087C43.2818 15.0338 39.3471 13.8162 35.9895 11.9053C34.573 11.0936 33.2265 10.1466 32.1422 8.94588C32.2472 9.1319 32.3521 9.31793 32.457 9.48704ZM42.7747 22.5085C41.6555 20.8512 39.8892 19.6167 38.2279 18.5175C36.4617 17.3506 34.6255 16.2345 33.1041 14.7632C32.0548 13.7486 31.2329 12.5648 30.6383 11.2796C30.8132 12.2943 31.1629 13.292 31.6001 14.2221C32.1597 15.4059 32.8942 16.5558 33.856 17.469C34.8004 18.3653 35.937 19.0417 37.0562 19.6843C37.1087 19.7012 37.1437 19.7351 37.1961 19.7689C37.2486 19.7858 37.2836 19.8027 37.3186 19.8365C38.4553 20.4791 39.5745 21.1387 40.6062 21.9335C42.0402 23.0665 43.1769 24.5378 43.9639 26.1612C43.9114 24.876 43.4917 23.5908 42.7747 22.5085ZM36.4792 34.2785C36.4442 34.3123 36.4092 34.363 36.3567 34.3968C36.0944 34.6674 35.8321 34.938 35.5698 35.2086C35.5698 35.2086 35.5698 35.2086 35.5698 35.2255C35.1326 36.4092 35.4999 37.593 36.007 38.6922C35.9895 38.54 35.972 38.3709 35.9545 38.2187C35.8671 36.8658 36.0944 35.5468 36.4792 34.2785ZM23.993 38.6584C23.993 38.6753 23.993 38.6753 23.993 38.6922C24.4827 37.593 24.8674 36.3923 24.4302 35.2255C24.4302 35.2255 24.4302 35.2255 24.4302 35.2086C24.1329 34.9042 23.8356 34.5998 23.5383 34.2954C23.6258 34.5829 23.7132 34.8703 23.7832 35.1747C24.0455 36.3078 24.1504 37.4915 23.993 38.6584ZM22.6814 19.8534C22.7339 19.8196 22.7689 19.7858 22.8388 19.7689C24.2728 18.9402 25.6893 18.0947 26.7735 16.8433C28.1026 15.3044 29.0469 13.3089 29.3967 11.2965C28.6797 12.8185 27.6479 14.1714 26.3538 15.3044C24.7625 16.6911 22.9088 17.7734 21.16 18.9741C19.5512 20.0733 17.8374 21.3585 16.9105 23.1003C16.4034 24.0304 16.1061 25.1127 16.0711 26.195C17.0154 24.2503 18.4669 22.5761 20.3031 21.3078C21.0551 20.7835 21.877 20.31 22.6814 19.8534ZM29.3967 7.47464C29.1344 8.21872 28.7846 8.94588 28.3824 9.62232C26.4413 12.8016 23.0137 14.4758 19.726 16.0823C16.5083 17.655 12.9933 19.4645 11.5418 22.8467C11.227 23.7937 11.4719 24.8253 11.7517 25.7554C12.2938 27.5817 13.2031 29.5434 12.696 31.4713C12.4512 32.4014 11.8216 33.1285 11.1921 33.8388C11.1396 33.9064 11.0697 33.9741 11.0172 34.0586C11.3844 33.6866 11.7867 33.3315 12.1889 32.9932C12.8009 32.4859 13.413 31.9955 13.9551 31.4205C14.3748 30.9808 14.6896 30.4735 14.9694 29.9324C15.0393 29.3912 15.1443 28.867 15.2842 28.3427C14.777 26.3811 15.1443 24.1657 16.1586 22.4239C17.1728 20.6652 18.9216 19.3292 20.6004 18.1793C22.3317 16.9955 24.1504 15.947 25.7243 14.5603C27.2107 13.2582 28.3299 11.6516 28.942 9.80834C29.1518 9.03044 29.3092 8.25254 29.3967 7.47464ZM14.5497 18.1454C17.5401 15.947 21.2125 14.8478 24.2728 12.7508C25.7418 11.7531 27.0009 10.5017 27.8753 8.97971C25.3046 11.8207 21.4573 13.0891 18.1521 14.9154C16.4558 15.8455 14.847 16.9617 13.6403 18.4667C13.3081 18.8726 13.0108 19.2954 12.7485 19.7351C13.2731 19.1601 13.8852 18.6189 14.5497 18.1454ZM20.0583 6.40924C18.2221 6.95039 16.5608 8.0496 15.4241 9.53777C17.3302 9.35175 19.2714 9.40248 21.125 9.25028C22.9438 9.115 24.7799 8.74295 26.3363 7.77903C26.7036 7.54228 27.0533 7.2717 27.3681 6.98421C27.7354 6.56144 28.0851 6.10485 28.3824 5.63134C28.1376 5.74972 27.8753 5.85118 27.6129 5.91883C26.3014 6.30778 24.9198 6.15558 23.5908 6.07102C22.4016 6.00338 21.23 6.07102 20.0583 6.40924ZM27.2282 5.2593C27.8403 5.1071 28.4523 4.81962 28.907 4.39684C28.1551 4.66742 27.3157 4.68433 26.5112 4.65051C25.4969 4.61669 24.1504 4.58286 23.3984 5.32694C24.675 5.39459 25.9866 5.58061 27.2282 5.2593ZM15.0918 10.2988C14.9694 10.3157 14.847 10.3326 14.7246 10.3495C13.0982 10.5862 11.4194 11.0767 10.1428 12.1082C9.00612 13.0214 8.1842 14.3405 8.11425 15.761C9.07607 15.3044 10.0904 14.9493 11.1046 14.628C14.9694 13.3766 19.0265 12.5141 22.6115 10.6201C23.3285 10.2311 24.0455 9.80834 24.71 9.33484C21.6672 10.3326 18.2571 9.92672 15.0918 10.2988ZM15.6689 45.5411C15.8438 46.8433 17.2428 47.5874 18.327 48.1623C18.9916 48.5006 19.6561 48.8726 20.2157 49.363C20.7578 49.8365 21.125 50.4284 21.4048 51.0879C21.842 52.1364 22.0869 53.4386 23.0487 54.1996C24.1329 55.0451 25.5669 54.4194 26.6161 53.8613C27.2282 53.5231 27.8403 53.1849 28.5048 52.9651C28.6272 52.9312 28.7671 52.8805 28.8895 52.8636C27.8403 52.1364 26.8085 51.3585 25.8817 50.4791C23.9056 48.602 22.3667 46.0485 22.4541 43.292C22.4541 43.0383 22.4891 42.8016 22.524 42.5648C21.5098 44.2728 20.2157 46.1161 20.6354 48.1454C20.6878 48.3991 20.5654 48.6866 20.2856 48.7542C20.0233 48.8219 19.7085 48.6697 19.6561 48.416C19.3763 47.097 19.6911 45.8117 20.2332 44.611C21.1425 42.5817 22.7514 40.8568 23.0137 38.5908C23.276 36.2401 22.4716 33.9572 21.4573 31.8602C21.1775 31.4543 20.9152 31.0316 20.7053 30.575C20.1282 29.3236 19.9883 27.9538 20.0233 26.584C19.9709 26.7193 19.9184 26.8546 19.8659 26.9899C19.5162 28.0045 19.2189 29.0361 19.044 30.0846C18.8516 31.2176 18.8516 32.3844 18.8691 33.5344C18.9216 36.0034 19.079 38.54 18.1347 40.8906C17.4876 42.4634 16.3859 43.9177 15.6689 45.5411ZM30.0087 52.3901C31.2329 51.5614 32.4395 50.699 33.4888 49.6843C35.3425 47.9087 36.7939 45.4735 36.5141 42.8692C36.3742 41.5163 35.6398 40.3495 35.0976 39.1319C34.6954 38.2525 34.3632 37.2717 34.3632 36.2909C34.0134 36.5614 33.6637 36.832 33.2789 37.0688C32.7018 37.4408 32.1073 37.7452 31.4602 37.982C31.1454 38.1003 30.8132 38.2187 30.4634 38.2864C30.306 38.3202 30.1486 38.3709 29.9913 38.3709C29.8164 38.3709 29.6415 38.3033 29.4666 38.2694C28.1725 37.9481 27.0009 37.3055 25.9516 36.5276C25.8467 36.4431 25.7418 36.3585 25.6194 36.274C25.6194 37.4239 25.1647 38.5569 24.6575 39.5885C24.0804 40.7892 23.4684 41.9729 23.4334 43.3258C23.3984 44.5941 23.7832 45.8455 24.3952 46.9786C25.6718 49.2954 27.8403 50.9188 30.0087 52.3901ZM31.1454 52.8298C32.2821 53.1173 33.2265 53.8275 34.3107 54.2672C34.9053 54.5209 35.6048 54.69 36.2518 54.5209C36.7939 54.3856 37.2136 54.0304 37.5284 53.5908C38.2279 52.5761 38.3853 51.2909 39.0498 50.2424C39.7493 49.1263 40.956 48.5513 42.0927 47.9425C43.072 47.4183 44.2087 46.6742 44.3661 45.5242C43.5267 43.6471 42.1976 42.0068 41.603 40.0113C40.8685 37.5761 41.1658 35.0395 41.1658 32.5536C41.1658 31.4543 41.0784 30.372 40.8511 29.2897C40.6412 28.3427 40.3614 27.3957 40.0117 26.4825C40.0291 26.8038 40.0291 27.1082 40.0117 27.4295C39.9767 28.8162 39.6619 30.1184 38.9274 31.3191C38.8225 31.4882 38.7176 31.6404 38.6127 31.7926C38.0356 32.9932 37.5284 34.2277 37.2311 35.513C36.9863 36.6122 36.8989 37.779 37.1087 38.8952C37.3186 40.0113 37.8082 41.009 38.3853 41.9729C39.5395 43.9346 40.9035 46.0147 40.4139 48.3653C40.3614 48.6189 40.0292 48.7711 39.7843 48.7035C39.5045 48.6359 39.3646 48.3653 39.4346 48.0947C39.6969 46.8433 39.2597 45.575 38.6826 44.4758C38.3328 43.7993 37.9306 43.1567 37.5459 42.5141C37.6159 42.903 37.6333 43.3258 37.6333 43.7317C37.5809 45.0676 37.1612 46.3698 36.4966 47.5536C35.22 49.752 33.2265 51.3923 31.1454 52.8298ZM52.4803 13.1567C52.3404 13.0722 52.2005 13.0045 52.0781 12.92C51.8333 12.7847 51.5885 12.6494 51.3436 12.4972C51.7284 12.9538 52.0431 13.4611 52.2705 14.0023C52.5678 14.6787 52.7077 15.4228 52.6552 16.1669C52.9875 16.3529 53.3197 16.5727 53.617 16.8095C53.0924 15.8455 52.8301 14.7125 52.5678 13.6133C52.5503 13.4611 52.5153 13.3089 52.4803 13.1567ZM48.4407 8.32018C48.8779 9.09809 49.3151 9.82525 49.8922 10.4002C50.5042 11.0259 51.3261 11.5333 52.2005 12.0406C51.9382 11.1443 51.5885 10.3495 50.9939 9.72379C50.3468 9.06426 49.4375 8.6584 48.4407 8.32018ZM42.1976 4.177C42.8796 4.88726 43.5616 5.54679 44.2961 5.98647C44.9956 6.40924 45.8525 6.69673 46.7094 6.9504C46.1848 6.07103 45.5902 5.31003 44.7858 4.83653C44.0513 4.39684 43.1594 4.24465 42.1976 4.177ZM34.9752 1.94476C35.7797 2.41826 36.5491 2.82413 37.3535 3.04397C38.2104 3.28072 39.1897 3.31455 40.169 3.33146C39.4695 2.68884 38.7176 2.14769 37.8432 1.91093C36.9338 1.64036 35.9545 1.74183 34.9752 1.94476ZM27.4031 1.55581C28.3474 1.80947 29.3092 2.04622 30.2011 2.04622C31.023 2.04622 31.8624 1.86021 32.7718 1.64036C31.8799 1.18377 30.9531 0.828635 30.0087 0.828635C29.1169 0.811724 28.26 1.13303 27.4031 1.55581ZM20.1282 3.31454C21.0201 3.29763 21.8945 3.2469 22.6814 3.04397C23.5208 2.80722 24.3602 2.35062 25.2171 1.84329C24.2903 1.64036 23.3984 1.57272 22.5765 1.77565C21.6497 2.02931 20.8802 2.60429 20.1282 3.31454ZM13.448 6.73055C14.4448 6.47689 15.3716 6.20631 16.1411 5.76663C16.8406 5.36077 17.4526 4.80271 18.0822 4.16009C17.0154 4.21082 16.0361 4.36302 15.2317 4.83653C14.4972 5.27621 13.9376 5.95265 13.448 6.73055ZM10.9822 10.6877C12.049 10.1466 13.2031 9.82525 14.4098 9.65615C15.0568 8.67531 15.8788 7.82976 16.8406 7.15332C18.4844 5.96956 20.443 5.37768 22.4716 5.31003C23.1011 4.16009 24.5876 3.88952 25.8292 3.88952C27.0184 3.90643 28.3824 4.09245 29.3442 3.31454C29.3792 3.2469 29.4142 3.19617 29.4666 3.16235C29.4841 3.11161 29.5191 3.07779 29.5541 3.04397C29.6415 2.95941 29.7989 2.92559 29.9388 2.95941C29.9738 2.95941 30.0087 2.95941 30.0437 2.95941C30.0787 2.95941 30.1137 2.95941 30.1312 2.95941C30.2711 2.92559 30.411 2.95941 30.5159 3.04397C30.5509 3.07779 30.5683 3.11161 30.5858 3.16235C30.6383 3.19617 30.6908 3.2469 30.7082 3.31454C31.6701 4.07554 33.0341 3.90643 34.2233 3.88952C35.4474 3.8726 36.9338 4.16009 37.5809 5.29312C38.6301 5.31003 39.6794 5.47914 40.6587 5.83427C42.7048 6.54453 44.471 7.8805 45.6252 9.65615C45.7126 9.67306 45.8176 9.68997 45.905 9.70688C46.9892 9.8929 48.0735 10.2142 49.0528 10.7046C48.4057 9.96054 47.8986 9.04735 47.4089 8.15107C47.3739 8.08343 47.339 8.0327 47.304 7.98196C47.234 7.96505 47.1816 7.94814 47.1116 7.93123C45.9924 7.60992 44.8382 7.2717 43.8589 6.69673C42.9321 6.13867 42.1277 5.31003 41.3407 4.49831C41.2183 4.37993 41.1134 4.26156 40.991 4.14318C40.8511 4.14318 40.6937 4.14318 40.5538 4.14318C39.3821 4.12627 38.1929 4.12627 37.1087 3.82187C36.0769 3.53439 35.0627 2.95941 34.1008 2.38444C33.9959 2.33371 33.9085 2.26607 33.8036 2.21533C33.6986 2.24916 33.5937 2.26607 33.4888 2.29989C32.422 2.57046 31.3028 2.87486 30.2536 2.87486C30.2361 2.87486 30.2186 2.87486 30.2186 2.87486C29.0994 2.87486 27.9452 2.55355 26.826 2.24915C26.6861 2.21533 26.5287 2.1646 26.3888 2.13078C26.2314 2.21533 26.0915 2.29989 25.9341 2.38444C24.9723 2.9425 23.958 3.53439 22.9263 3.82187C21.842 4.12627 20.6354 4.12627 19.4812 4.14318C19.4287 4.14318 19.3588 4.14318 19.3063 4.14318C19.2713 4.19391 19.2189 4.22773 19.1839 4.27846C18.3795 5.09019 17.5576 5.91883 16.5957 6.47689C15.6514 7.01804 14.4972 7.32244 13.378 7.60992C13.2206 7.64374 13.0458 7.69447 12.8884 7.74521C12.8009 7.88049 12.731 8.03269 12.661 8.16798C12.1364 9.03044 11.6468 9.94363 10.9822 10.6877ZM8.13174 11.8715C8.90119 11.4149 9.6007 10.9583 10.1428 10.4171C10.7724 9.77452 11.2445 8.94589 11.7342 8.06652C10.8423 8.354 10.0379 8.72604 9.44331 9.33484C8.77878 9.97745 8.41154 10.8737 8.13174 11.8715ZM6.66278 16.2852C6.54037 16.4882 6.40047 16.6911 6.26057 16.8771C6.61032 16.6065 6.96007 16.3698 7.3448 16.1669C7.30982 15.4228 7.44973 14.6787 7.74702 14.0023C7.97435 13.4611 8.28913 12.9538 8.67386 12.4972C8.42903 12.6494 8.1842 12.7847 7.95686 12.92C7.92189 12.9369 7.86943 12.9707 7.83445 12.9876C7.83445 13.0045 7.81696 13.0383 7.81696 13.0552C7.51968 14.1714 7.23987 15.3213 6.66278 16.2852ZM4.07462 18.0271C4.8091 17.3168 5.5086 16.6404 5.94579 15.8963C6.33052 15.2198 6.59283 14.425 6.80268 13.6133C5.89332 14.1883 5.10638 14.7971 4.63422 15.6257C4.232 16.3191 4.10959 17.1308 4.07462 18.0271ZM4.07462 19.177C4.07462 19.3461 4.07461 19.4983 4.0921 19.6674C4.0921 19.7689 4.0921 19.8873 4.0921 19.9887C4.14456 19.7689 4.21452 19.549 4.30195 19.3292C4.42437 19.0586 4.56427 18.805 4.72166 18.5513C4.63422 18.6359 4.54678 18.7204 4.45934 18.7881C4.33693 18.9233 4.21452 19.0417 4.07462 19.177ZM2.02856 25.0958C2.46575 24.3517 2.85048 23.6246 3.04284 22.8974C3.27018 22.018 3.27018 21.0203 3.2527 20.0225C2.64063 20.6821 2.15098 21.3923 1.92364 22.1872C1.66132 23.0834 1.78374 24.0812 2.02856 25.0958ZM1.57389 32.469C1.85369 31.522 2.116 30.5581 2.13349 29.6618C2.15098 28.9008 1.95861 28.0891 1.73127 27.2435C1.24162 28.1398 0.856892 29.0699 0.856892 30.0169C0.856892 30.8455 1.15418 31.6573 1.57389 32.469ZM3.04284 37.1195C2.8155 36.274 2.34334 35.4453 1.81871 34.5829C1.60886 35.4622 1.52143 36.3078 1.71379 37.1026C1.94113 38.0158 2.5357 38.8106 3.2527 39.5885C3.27018 38.743 3.25269 37.8805 3.04284 37.1195ZM4.07462 40.3495C4.07462 40.3833 4.07462 40.4171 4.07462 40.451C4.10959 40.4848 4.14456 40.5186 4.17954 40.5693C4.3719 40.7723 4.56427 40.9583 4.77412 41.1612C4.65171 40.8737 4.52929 40.5693 4.44185 40.2649C4.31944 39.876 4.24949 39.4701 4.19703 39.0643C3.96969 37.4577 4.17954 35.8004 4.45934 34.2277C4.82658 32.1308 5.35121 30.0338 5.24628 27.903C5.15885 25.9752 4.28446 24.2165 4.00466 22.3393C3.96969 22.593 3.91723 22.8467 3.84727 23.1003C3.58496 24.1319 2.9729 25.1296 2.39581 26.0936C2.36083 26.1443 2.34334 26.195 2.30837 26.2458C2.32585 26.2965 2.34334 26.3642 2.36083 26.4149C2.65812 27.4972 2.97289 28.6133 2.95541 29.6787C2.93792 30.7948 2.58817 31.9448 2.2559 33.044C2.20344 33.1962 2.16846 33.3484 2.116 33.5006C2.20344 33.6528 2.29088 33.805 2.39581 33.9572C2.9729 34.9211 3.58496 35.9188 3.84727 36.9504C4.14456 38.0158 4.10959 39.1996 4.07462 40.3495ZM6.52288 46.2345C6.29554 45.2537 6.05072 44.3405 5.63101 43.5626C5.24629 42.8692 4.68668 42.2435 4.05713 41.6009C4.07462 42.6325 4.17954 43.5964 4.63422 44.3912C5.05392 45.1353 5.73594 45.7103 6.52288 46.2345ZM11.5768 51.6798C11.1396 50.9019 10.7024 50.1747 10.1253 49.5998C9.51326 48.9741 8.69135 48.4667 7.81696 47.9594C8.07928 48.8557 8.42903 49.6505 9.02361 50.2762C9.67065 50.9526 10.58 51.3585 11.5768 51.6798ZM12.9233 52.0857C13.6054 52.2886 14.3224 52.4916 14.9869 52.7452C14.3224 52.1702 13.7278 51.5276 13.2206 50.8174C12.9933 50.513 12.7834 50.1917 12.6086 49.8534C12.014 48.805 11.5768 47.6719 11.3844 46.4882C11.1571 45.0338 11.227 43.5457 10.8423 42.1251C10.2128 39.7407 8.53395 37.8129 7.25736 35.7328C6.57534 34.5998 5.91081 33.2807 5.68347 31.9278C5.49111 32.9594 5.28126 33.991 5.12387 35.0225C4.82658 36.9166 4.72166 38.929 5.45614 40.7554C6.01574 42.159 7.11746 43.4611 8.6214 43.9515C9.09356 44.1037 8.88371 44.814 8.41154 44.6618C8.02682 44.5265 7.64209 44.3574 7.29234 44.1544C7.04751 44.0023 6.83766 43.8501 6.61032 43.664C6.99505 44.5265 7.22238 45.4735 7.43224 46.4036C7.46721 46.5558 7.50219 46.708 7.53716 46.8433C7.67706 46.9278 7.81696 46.9955 7.95686 47.0801C8.95366 47.655 9.98543 48.2469 10.7549 49.0417C11.5243 49.8365 12.1014 50.8681 12.6435 51.8658C12.6785 51.9166 12.7135 51.9842 12.7485 52.035C12.7834 52.0519 12.8534 52.0688 12.9233 52.0857ZM17.8199 55.823C17.1379 55.1127 16.4558 54.4532 15.7214 53.9966C15.0219 53.5738 14.165 53.2864 13.3081 53.0327C13.8327 53.9121 14.4273 54.673 15.2317 55.1466C15.9662 55.6032 16.8581 55.7554 17.8199 55.823ZM25.0423 58.0722C24.2378 57.5987 23.4684 57.1928 22.6639 56.9729C21.8071 56.7362 20.8277 56.7024 19.8484 56.6855C20.5479 57.3281 21.2999 57.8692 22.1743 58.106C23.0837 58.3596 24.063 58.2751 25.0423 58.0722ZM32.6144 58.4442C31.6701 58.1905 30.7082 57.9538 29.8164 57.9538C29.0119 57.9538 28.1551 58.1398 27.2457 58.3596C28.1376 58.8162 29.0644 59.1714 30.0087 59.1714C30.9006 59.1883 31.7575 58.8839 32.6144 58.4442ZM39.8892 56.7024C38.9974 56.7193 38.1055 56.77 37.3361 56.9899C36.4967 57.2266 35.6572 57.6832 34.8004 58.1905C35.7272 58.3935 36.6191 58.478 37.441 58.2413C38.3678 57.9876 39.1373 57.3957 39.8892 56.7024ZM42.4949 54.2165C42.0752 54.4194 41.638 54.6223 41.2008 54.7914L41.2533 54.9267C41.0434 54.9944 40.8161 55.062 40.6062 55.1297C40.4139 55.1804 40.2215 55.2311 40.0291 55.2649C39.9067 55.2988 39.7843 55.3157 39.6619 55.3326C39.2947 55.4002 39.0848 55.0113 39.2247 54.7745C39.2597 54.69 39.3471 54.6392 39.4695 54.6223C39.6794 54.5885 39.8892 54.5378 40.0991 54.487C41.1484 54.2334 42.1277 53.8275 43.037 53.2694C43.0545 53.2018 43.0895 53.1342 43.1594 53.0665C43.1594 53.0665 43.1594 53.0665 43.1769 53.0496C44.9082 51.3247 45.4503 48.8557 44.7858 46.5896C44.2961 47.4352 43.3693 48.0778 42.4774 48.5513C41.7954 48.9233 41.0784 49.2446 40.4838 49.7351C39.9067 50.2086 39.522 50.8174 39.2597 51.5107C38.8225 52.6437 38.5077 53.929 37.476 54.7238C36.2868 55.637 34.7654 55.3157 33.5238 54.7069C32.8767 54.3856 32.2646 53.9966 31.6001 53.726C31.1629 53.5569 30.7082 53.4555 30.2361 53.4216C30.1137 53.4893 29.9213 53.4893 29.7989 53.4216C29.694 53.4216 29.589 53.4386 29.4841 53.4386C28.0326 53.6077 26.9134 54.6561 25.5494 55.0958C24.8849 55.2988 24.1504 55.3833 23.4859 55.1973C22.8563 55.0282 22.3667 54.6223 21.9819 54.115C21.1775 53.0834 21.0376 51.7644 20.3731 50.6483C19.6561 49.4645 18.2571 48.9741 17.1029 48.2976C16.3684 47.8749 15.6689 47.2999 15.2667 46.5896C15.2317 46.6911 15.1967 46.7926 15.1793 46.894C14.6022 49.0586 15.2667 51.4431 16.893 53.0496C16.9105 53.0665 16.928 53.1003 16.9455 53.1172C16.9805 53.168 16.998 53.2187 17.0154 53.2694C17.7499 53.726 18.5544 54.0812 19.3938 54.3348C19.761 54.4532 19.726 54.8929 19.4637 55.0282C18.9916 54.8422 18.5019 54.6392 17.9773 54.4025C17.715 54.2841 17.4526 54.1488 17.1903 54.0304C17.715 54.487 18.2221 54.9944 18.6943 55.5017C18.7992 55.6201 18.9216 55.7384 19.044 55.8568C19.1839 55.8568 19.3413 55.8568 19.4812 55.8568C20.6354 55.8737 21.842 55.8737 22.9263 56.1781C23.958 56.4656 24.9723 57.0406 25.9341 57.6156C26.0391 57.6663 26.1265 57.7339 26.2314 57.7847C26.3363 57.7508 26.4413 57.7339 26.5637 57.7001C27.6304 57.4126 28.7496 57.1421 29.7989 57.1421C29.8164 57.1421 29.8339 57.1421 29.8339 57.1421C30.9531 57.1421 32.1073 57.4634 33.2265 57.7678C33.3664 57.8016 33.5238 57.8523 33.6637 57.8861C33.821 57.8016 33.9609 57.717 34.1183 57.6325C35.0802 57.0744 36.0944 56.4825 37.1262 56.195C38.2104 55.8906 39.4171 55.8906 40.5713 55.8737C40.6237 55.8737 40.6937 55.8737 40.7461 55.8737C40.7811 55.823 40.8336 55.7892 40.8685 55.7384C41.3932 55.2142 41.9178 54.673 42.4949 54.2165ZM46.5695 53.2694C45.5727 53.5231 44.6459 53.7937 43.8764 54.2334C43.1769 54.6392 42.5648 55.1973 41.9353 55.8399C43.002 55.7892 43.9813 55.637 44.7858 55.1635C45.5203 54.7238 46.0799 54.0643 46.5695 53.2694ZM51.9032 48.1454C51.1513 48.602 50.4343 49.0417 49.8922 49.5998C49.2626 50.2424 48.7904 51.071 48.3008 51.9504C49.1926 51.6629 49.9971 51.2909 50.5917 50.6821C51.2387 50.0395 51.6059 49.1432 51.9032 48.1454ZM53.3547 43.7148C52.8476 44.1206 52.2705 44.4419 51.6234 44.6618C51.1513 44.814 50.9589 44.1037 51.4136 43.9515C51.7808 43.8331 52.1131 43.664 52.4453 43.4611C53.7744 42.6156 54.5963 41.1274 54.9286 39.6392C55.3833 37.6268 55.016 35.513 54.6313 33.5006C54.5264 32.9763 54.4214 32.4521 54.334 31.9278C54.0192 33.9064 52.7776 35.7328 51.6759 37.3901C50.9414 38.4893 50.1894 39.5885 49.6473 40.7892C49.385 41.3811 49.1752 42.0068 49.0528 42.6494C48.8954 43.4273 48.8604 44.2221 48.8079 45.0169C48.703 46.3529 48.4757 47.6381 47.9161 48.8726C47.6188 49.5321 47.269 50.1578 46.8493 50.7328C46.5695 51.1218 46.2722 51.5107 45.9225 51.8658C45.5727 52.2548 45.188 52.6099 44.7858 52.9312C45.3978 52.7283 46.0274 52.5592 46.657 52.3901C46.8143 52.3563 46.9892 52.3055 47.1466 52.2548C47.234 52.1195 47.304 51.9673 47.3739 51.832C47.9161 50.8343 48.4931 49.8027 49.2626 49.0079C50.0321 48.23 51.0638 47.6212 52.0606 47.0631C52.0956 47.0462 52.1481 47.0124 52.183 46.9955C52.183 46.9786 52.2005 46.9448 52.2005 46.9278C52.4978 45.8286 52.7776 44.6956 53.3547 43.7148ZM55.9429 41.9729C55.2084 42.6832 54.5089 43.3596 54.0717 44.1206C53.687 44.7971 53.4247 45.5919 53.2148 46.4036C54.1242 45.8286 54.9111 45.2198 55.3833 44.3912C55.7855 43.6979 55.9079 42.8692 55.9429 41.9729ZM55.9429 40.8399C55.9429 40.6708 55.9429 40.5186 55.9254 40.3495C55.8904 39.1996 55.8729 38.0158 56.1527 36.9335C56.415 35.9019 57.0271 34.9042 57.6042 33.9403C57.6392 33.8895 57.6567 33.8388 57.6916 33.788C57.6741 33.7373 57.6567 33.6697 57.6392 33.6189C57.3419 32.5366 57.0271 31.4205 57.0446 30.3551C57.0621 29.239 57.4118 28.0891 57.7441 26.9899C57.7966 26.8377 57.8315 26.6855 57.884 26.5333C57.7966 26.3811 57.7091 26.2289 57.6042 26.0767C57.0271 25.1127 56.415 24.115 56.1527 23.0834C56.0828 22.8298 56.0478 22.593 56.0128 22.3224C55.9604 22.7114 55.8729 23.0834 55.768 23.4724C55.5232 24.4194 55.1909 25.3495 54.9811 26.3134C54.7537 27.345 54.7187 28.4104 54.7887 29.4589C54.9461 31.5727 55.5232 33.6358 55.7855 35.7328C55.9254 36.7982 55.9604 37.8805 55.8205 38.929C55.7155 39.7745 55.5057 40.6032 55.121 41.398C55.051 41.5502 54.9811 41.6855 54.8936 41.8207C55.1035 41.6178 55.3133 41.4149 55.5407 41.212C55.6806 41.0936 55.803 40.9583 55.9429 40.8399ZM28.1725 32.5536C28.5573 32.8579 28.907 32.5366 29.2393 32.3675C29.4841 32.2492 29.7639 32.2153 30.0087 32.3168C30.2536 32.2153 30.5334 32.2492 30.7782 32.3675C31.128 32.5366 31.4602 32.841 31.8449 32.5536C31.8974 32.5028 31.9674 32.5028 32.0198 32.5366C32.0723 32.5536 32.1073 32.5874 32.1073 32.6381C32.1073 32.6719 32.1073 32.7057 32.0898 32.7396C31.9848 32.8918 31.9149 33.0609 31.7925 33.1962C31.6526 33.3484 31.4777 33.4667 31.3028 33.5682C31.1105 33.6697 30.8831 33.7204 30.6733 33.7373C30.5683 33.7542 30.4634 33.7373 30.341 33.7373C30.2361 33.7204 30.1312 33.6866 30.0262 33.6866C29.9213 33.6866 29.8164 33.7373 29.7115 33.7373C29.589 33.7542 29.4666 33.7542 29.3617 33.7373C29.1518 33.7204 28.942 33.6528 28.7671 33.5682C28.5922 33.4837 28.4174 33.3484 28.2775 33.1962C28.1551 33.0609 28.0851 32.8918 27.9802 32.7396C27.9627 32.7057 27.9452 32.6719 27.9627 32.6381C27.9627 32.5874 27.9977 32.5536 28.0501 32.5366C28.0501 32.5028 28.1026 32.4859 28.1725 32.5536ZM28.9245 32.8918C28.977 32.8918 29.0294 32.8918 29.0819 32.8749C29.3967 32.8241 29.7115 32.7058 30.0087 32.841C30.306 32.7058 30.6208 32.8241 30.9356 32.8749C30.988 32.8749 31.0405 32.8918 31.093 32.8918C30.7782 32.7396 30.4459 32.4183 30.0962 32.6212C30.0437 32.655 29.9913 32.655 29.9388 32.6212C29.5716 32.4183 29.2393 32.7396 28.9245 32.8918ZM28.6272 33.1454C28.7147 33.2131 28.7846 33.2638 28.8895 33.2976C29.0644 33.3822 29.2568 33.4329 29.4666 33.4329C29.5716 33.4329 29.6765 33.4329 29.7814 33.416C29.8514 33.3991 29.9388 33.3653 30.0087 33.3653C30.0962 33.3653 30.2011 33.416 30.2885 33.4329C30.3935 33.4498 30.4984 33.4498 30.5858 33.4498C30.7782 33.4329 30.9881 33.3822 31.1629 33.2976C31.2504 33.2638 31.3203 33.2131 31.3903 33.1454C31.3378 33.1623 31.3028 33.1623 31.2504 33.1793C31.0755 33.1962 30.9006 33.1793 30.7257 33.1285C30.5159 33.0778 30.2885 33.0101 30.0962 33.1285C30.0437 33.1623 29.9913 33.1623 29.9388 33.1285C29.7289 33.0101 29.5016 33.0947 29.2743 33.1285C29.1169 33.1623 28.942 33.1793 28.7846 33.1623C28.7321 33.1793 28.6797 33.1623 28.6272 33.1454ZM31.9499 33.9572C30.7432 34.6336 29.2743 34.6336 28.0851 33.9572C27.8578 33.8219 27.6479 34.1601 27.8753 34.2954C29.2043 35.0564 30.8481 35.0564 32.1597 34.2954C32.3696 34.1601 32.1772 33.8219 31.9499 33.9572ZM29.3617 29.7802C29.4666 29.7971 29.5716 29.814 29.659 29.8647C29.7464 29.8985 29.8164 29.9662 29.9038 29.9662C29.9913 29.9662 30.0787 29.8985 30.1661 29.8647C30.2711 29.8309 30.376 29.7971 30.4809 29.7802C30.6908 29.7463 30.8831 29.7802 31.0755 29.8647C31.0755 29.8309 31.0405 29.7971 31.0055 29.7802C30.8307 29.6956 30.9881 29.4419 31.1629 29.5265C31.3203 29.5941 31.4078 29.7632 31.3903 29.9324C31.3728 30.1184 31.2504 30.2706 31.093 30.372C30.9181 30.4904 30.6908 30.575 30.4984 30.6426C30.3235 30.7103 30.0962 30.7948 29.9038 30.7948C29.8164 30.7948 29.7289 30.761 29.6415 30.7441C29.5191 30.7103 29.3967 30.6764 29.2917 30.6426C29.0819 30.575 28.872 30.4904 28.6972 30.372C28.5398 30.2706 28.4174 30.1184 28.4174 29.9324C28.4174 29.7632 28.4873 29.6111 28.6447 29.5434C28.8196 29.4589 28.977 29.7125 28.8021 29.7971C28.7671 29.814 28.7322 29.8478 28.7322 29.8816C28.942 29.7802 29.1518 29.7463 29.3617 29.7802ZM29.4317 30.0846C29.2568 30.0338 29.0644 30.0507 28.907 30.1015C28.977 30.1353 29.0294 30.1691 29.0994 30.2029C29.2393 30.2706 29.3967 30.3213 29.5366 30.372C29.659 30.4059 29.7989 30.4735 29.9213 30.4735C30.0437 30.4735 30.2011 30.4059 30.3235 30.372C30.4809 30.3213 30.6208 30.2706 30.7607 30.2029C30.8132 30.1691 30.8831 30.1522 30.9356 30.1184C30.7607 30.0507 30.5858 30.0507 30.411 30.1015C30.2361 30.1522 30.0962 30.2706 29.9213 30.2706C29.7464 30.2537 29.589 30.1353 29.4317 30.0846ZM27.9102 25.2818C25.7593 25.9752 24.2553 24.4363 24.2553 24.4363C23.8181 25.0113 22.6115 24.6561 22.6115 24.6561C22.9263 24.9944 24.0105 25.0958 24.0105 25.0958C23.6782 25.248 22.7164 25.2988 22.7164 25.2988C23.2061 25.6539 24.4652 25.5524 24.4652 25.5524L23.5733 25.9076C27.1583 26.398 27.9102 25.2818 27.9102 25.2818ZM35.7797 24.4363C35.7797 24.4363 34.2757 25.9752 32.1247 25.2818C32.1247 25.2818 32.8767 26.398 36.4617 25.8906L35.5698 25.5355C35.5698 25.5355 36.8289 25.637 37.3186 25.2818C37.3186 25.2818 36.3568 25.2142 36.0245 25.0789C36.0245 25.0789 37.1087 24.9944 37.4235 24.6392C37.4235 24.6561 36.1994 25.0113 35.7797 24.4363ZM28.5748 26.3472C28.8021 27.159 28.9245 27.9876 28.9245 28.8501C29.1518 28.0045 29.1518 27.1251 29.0119 26.2458C28.4349 23.0834 26.1964 21.4938 22.9787 22.7621C26.2139 22.3224 27.7004 23.354 28.5748 26.3472ZM31.4427 26.3472C32.3171 23.354 33.8036 22.3224 37.0388 22.779C33.8385 21.5107 31.5826 23.1003 31.0055 26.2627C30.8482 27.1251 30.8656 28.0214 31.093 28.867C31.093 27.9876 31.2154 27.142 31.4427 26.3472Z" fill="#FFD700"/>
<path id="Vector_2" d="M97.9256 24.2126C98.1841 24.2126 98.3957 24.189 98.5602 24.189V24.5197C98.2076 24.5433 97.9491 24.6378 97.761 24.7559C97.573 24.874 97.4554 25.0866 97.3849 25.3465C97.3144 25.6063 97.2909 25.9843 97.2909 26.4803V30.9921C97.2909 31.7244 97.2439 32.3622 97.1499 32.9528C97.0558 33.5197 96.8913 34.0394 96.6327 34.4646C96.3741 34.9134 95.951 35.2913 95.4339 35.5748C94.9167 35.8583 94.2351 36 93.4829 36C92.9657 36 92.4486 35.9528 91.9549 35.811C91.4613 35.6929 91.0147 35.4567 90.6386 35.1496C90.3095 34.8662 90.0509 34.5355 89.8394 34.1811C89.6278 33.8268 89.5103 33.4016 89.4633 32.8819C89.3927 32.3858 89.3692 31.7717 89.3692 31.063V25.937C89.3692 25.5354 89.3457 25.2284 89.2752 25.0394C89.2047 24.8504 89.0872 24.7087 88.9226 24.6378C88.7346 24.5669 88.476 24.5197 88.1234 24.5197V24.189C88.382 24.189 88.7346 24.2126 89.1577 24.2126C89.5808 24.2126 90.0274 24.2362 90.5211 24.2362C90.9677 24.2362 91.4143 24.2362 91.8374 24.2126C92.2605 24.2126 92.6366 24.189 92.9187 24.189V24.5197C92.5426 24.5197 92.2605 24.5669 92.0725 24.6378C91.8844 24.7087 91.7434 24.8268 91.6964 25.0394C91.6259 25.2284 91.6024 25.5354 91.6024 25.937V31.8425C91.6024 32.3858 91.6259 32.8819 91.7199 33.3071C91.7904 33.7559 91.9079 34.1339 92.0725 34.441C92.237 34.748 92.4721 34.9843 92.7777 35.1496C93.0833 35.315 93.4829 35.3858 93.953 35.3858C94.7522 35.3858 95.3634 35.1969 95.7865 34.8425C96.2096 34.4882 96.5152 33.9921 96.7032 33.3307C96.8913 32.6693 96.9618 31.9606 96.9618 31.1339V26.5748C96.9618 26.0315 96.9148 25.6299 96.8443 25.3465C96.7737 25.063 96.6092 24.8504 96.3976 24.7323C96.1626 24.6142 95.857 24.5197 95.4104 24.4961V24.1654C95.6219 24.1654 95.8805 24.189 96.2096 24.189C96.5387 24.189 96.8443 24.2126 97.1263 24.2126C97.4084 24.2362 97.667 24.2362 97.9256 24.2126ZM146.208 31.2992C146.443 31.7008 146.56 32.126 146.56 32.5748C146.56 33.2362 146.396 33.8032 146.043 34.2756C145.69 34.748 145.22 35.1024 144.562 35.3622C143.904 35.6221 143.152 35.7402 142.259 35.7402C142.024 35.7402 141.647 35.7402 141.177 35.7166C140.684 35.6929 140.096 35.6929 139.414 35.6929C138.968 35.6929 138.545 35.6929 138.098 35.6929C137.651 35.6929 137.322 35.7165 137.064 35.7402V35.4095C137.416 35.3858 137.698 35.3386 137.863 35.2913C138.051 35.2205 138.168 35.1024 138.215 34.8898C138.262 34.7008 138.31 34.3937 138.31 34.0158V25.9134C138.31 25.5118 138.286 25.2047 138.215 25.0157C138.145 24.8268 138.027 24.685 137.863 24.6142C137.698 24.5433 137.416 24.4961 137.064 24.4961V24.1654C137.322 24.1654 137.675 24.189 138.098 24.189C138.521 24.189 138.944 24.2126 139.367 24.2126C139.884 24.2126 140.378 24.2126 140.872 24.189C141.365 24.1654 141.694 24.1654 141.882 24.1654C143.152 24.1654 144.116 24.4016 144.75 24.874C145.385 25.3465 145.69 25.9606 145.69 26.7165C145.69 27.0945 145.596 27.4724 145.385 27.8504C145.197 28.2283 144.868 28.5827 144.421 28.8662C143.975 29.1496 143.41 29.4095 142.705 29.5512V29.5748C143.645 29.6693 144.421 29.8583 144.962 30.1654C145.549 30.5433 145.949 30.8977 146.208 31.2992ZM140.543 29.5984H141.365C141.906 29.5984 142.353 29.4803 142.635 29.2441C142.94 29.0079 143.128 28.6772 143.246 28.252C143.363 27.8504 143.41 27.4016 143.41 26.9291C143.41 26.126 143.269 25.5118 142.987 25.1102C142.705 24.7087 142.235 24.4961 141.6 24.4961C141.154 24.4961 140.872 24.5905 140.731 24.7795C140.59 24.9685 140.519 25.3465 140.519 25.9134V29.5984H140.543ZM144.21 32.5039C144.21 31.6772 143.998 31.0158 143.575 30.5669C143.152 30.1181 142.447 29.8819 141.459 29.8819H140.543V34.0158C140.543 34.3937 140.566 34.6772 140.637 34.8898C140.707 35.1024 140.801 35.2205 140.989 35.2913C141.154 35.3622 141.389 35.3858 141.718 35.3858C142.588 35.3858 143.246 35.1496 143.645 34.6536C144.022 34.1339 144.21 33.4252 144.21 32.5039ZM173.875 24.189C173.405 24.189 172.864 24.2126 172.3 24.2126C171.736 24.2126 171.148 24.2362 170.584 24.2362C170.02 24.2362 169.479 24.2362 169.032 24.2362C168.562 24.2362 168.022 24.2362 167.457 24.2362C166.893 24.2362 166.306 24.2362 165.741 24.2126C165.177 24.189 164.637 24.189 164.167 24.189C164.214 24.685 164.237 25.1811 164.261 25.6535C164.284 26.126 164.284 26.4803 164.284 26.7402C164.284 27 164.284 27.2126 164.284 27.4488C164.284 27.6851 164.261 27.8504 164.237 28.0158H164.613C164.754 27.1417 164.942 26.4567 165.154 25.9606C165.365 25.4646 165.647 25.1102 166.024 24.8976C166.376 24.685 166.846 24.5669 167.41 24.5669H167.951V33.874C167.951 34.3228 167.904 34.6536 167.833 34.8662C167.739 35.0788 167.575 35.2205 167.34 35.2913C167.105 35.3622 166.729 35.4095 166.259 35.4095V35.7402C166.564 35.7165 166.964 35.6929 167.457 35.6929C167.951 35.6929 168.468 35.6929 169.032 35.6929C169.573 35.6929 170.114 35.6929 170.631 35.6929C171.148 35.6929 171.571 35.7165 171.9 35.7402V35.4095C171.43 35.4095 171.054 35.3622 170.819 35.2913C170.56 35.2205 170.396 35.0788 170.325 34.8662C170.255 34.6536 170.208 34.3228 170.208 33.874V24.5669H170.725C171.289 24.5669 171.759 24.685 172.112 24.8976C172.464 25.1102 172.746 25.4646 172.958 25.9606C173.169 26.4567 173.357 27.1417 173.499 28.0158H173.875C173.875 27.8504 173.851 27.6614 173.851 27.4488C173.851 27.2362 173.828 27 173.828 26.7402C173.828 26.4803 173.828 26.126 173.851 25.6535C173.804 25.1811 173.828 24.685 173.875 24.189ZM160.711 35.1732C160.899 35.315 161.064 35.4095 161.228 35.4095V35.7402C160.946 35.7165 160.617 35.6929 160.217 35.6929C159.818 35.6929 159.418 35.6929 158.995 35.6929C158.525 35.6929 158.078 35.6929 157.655 35.6929C157.232 35.6929 156.903 35.7165 156.644 35.7402V35.4095C157.185 35.3858 157.538 35.2914 157.702 35.126C157.867 34.9606 157.82 34.6063 157.608 34.0394L156.621 31.3701H152.954L152.437 32.7165C152.225 33.2599 152.108 33.7087 152.061 34.063C152.014 34.4173 152.037 34.6772 152.131 34.8898C152.225 35.0788 152.39 35.2205 152.625 35.315C152.86 35.3858 153.142 35.4331 153.471 35.4567V35.7874C153.119 35.7638 152.789 35.7402 152.46 35.7402C152.131 35.7402 151.802 35.7402 151.497 35.7402C151.262 35.7402 151.026 35.7402 150.815 35.7402C150.603 35.7402 150.415 35.7638 150.251 35.7874V35.4567C150.486 35.4095 150.721 35.2677 150.956 35.0315C151.191 34.7953 151.426 34.3937 151.638 33.8504L155.352 24.189C155.469 24.189 155.634 24.2126 155.775 24.2126C155.939 24.2126 156.057 24.2126 156.198 24.189L160.147 34.4173C160.335 34.7717 160.523 35.0315 160.711 35.1732ZM156.527 31.0394L154.858 26.5039L153.119 31.0394H156.527ZM109.655 30.1654C109.232 29.811 108.762 29.4803 108.221 29.126C107.657 28.748 107.164 28.4173 106.74 28.1339C106.317 27.8504 106.012 27.5433 105.777 27.2362C105.542 26.9291 105.424 26.5512 105.424 26.0787C105.424 25.5354 105.612 25.1339 105.941 24.8032C106.294 24.4961 106.74 24.3307 107.258 24.3307C107.845 24.3307 108.339 24.4961 108.715 24.8268C109.091 25.1575 109.397 25.5827 109.608 26.0787C109.82 26.5748 109.937 27.1181 109.984 27.6851H110.36C110.36 26.9528 110.36 26.3386 110.36 25.8898C110.36 25.4409 110.384 25.0866 110.384 24.8032C110.384 24.5197 110.407 24.2835 110.431 24.0945H110.055C110.031 24.3307 109.984 24.5197 109.937 24.6378C109.89 24.7559 109.82 24.8268 109.702 24.8268C109.632 24.8268 109.538 24.8031 109.467 24.7795C109.373 24.7323 109.279 24.685 109.138 24.6142C108.903 24.4725 108.621 24.3307 108.292 24.189C107.963 24.0709 107.493 24 106.905 24C106.317 24 105.753 24.0945 105.236 24.3071C104.719 24.5197 104.296 24.8268 103.967 25.252C103.638 25.6772 103.473 26.2441 103.473 26.9055C103.473 27.5197 103.614 28.0394 103.873 28.4646C104.131 28.8898 104.484 29.2677 104.93 29.622C105.377 29.9528 105.847 30.2835 106.364 30.6142C106.858 30.9213 107.305 31.2284 107.657 31.5118C108.01 31.7953 108.315 32.126 108.527 32.4567C108.738 32.7874 108.833 33.189 108.833 33.6378C108.833 34.0866 108.738 34.441 108.55 34.748C108.362 35.0551 108.127 35.2441 107.822 35.3858C107.516 35.5276 107.164 35.5984 106.787 35.5984C106.082 35.5984 105.542 35.4095 105.119 35.0551C104.695 34.6772 104.39 34.2047 104.202 33.5906C103.99 32.9764 103.873 32.3386 103.849 31.6299H103.473C103.473 32.4567 103.473 33.1417 103.473 33.685C103.473 34.2284 103.473 34.6536 103.45 35.0079C103.45 35.3386 103.426 35.6457 103.403 35.8819H103.779C103.802 35.6457 103.849 35.4567 103.896 35.3386C103.943 35.2205 104.014 35.1496 104.131 35.1496C104.249 35.1496 104.437 35.2205 104.695 35.3858C104.954 35.5276 105.283 35.6693 105.659 35.7874C106.035 35.9055 106.529 35.9764 107.187 35.9764C107.892 35.9764 108.527 35.8583 109.091 35.6221C109.679 35.3858 110.149 35.0551 110.478 34.5827C110.807 34.1102 110.995 33.5197 110.995 32.811C110.995 32.2205 110.878 31.7008 110.619 31.2992C110.407 30.8977 110.078 30.5197 109.655 30.1654ZM188.872 25.0394C188.942 24.8504 189.06 24.7087 189.224 24.6378C189.412 24.5669 189.671 24.5197 190 24.5197V24.189C189.741 24.189 189.412 24.2126 189.013 24.2126C188.59 24.2126 188.143 24.2362 187.673 24.2362C187.25 24.2362 186.803 24.2362 186.38 24.2126C185.957 24.189 185.581 24.189 185.299 24.189V24.5197C185.651 24.5197 185.933 24.5669 186.098 24.6378C186.286 24.7087 186.404 24.8268 186.451 25.0394C186.498 25.252 186.545 25.5354 186.545 25.937V29.7874H181.914V25.937C181.914 25.5354 181.937 25.2284 182.008 25.0394C182.078 24.8504 182.196 24.7087 182.36 24.6378C182.525 24.5669 182.807 24.5197 183.136 24.5197V24.189C182.854 24.189 182.525 24.2126 182.102 24.2126C181.679 24.2126 181.256 24.2362 180.809 24.2362C180.315 24.2362 179.869 24.2362 179.446 24.2126C179.023 24.189 178.67 24.189 178.411 24.189V24.5197C178.764 24.5197 179.046 24.5669 179.211 24.6378C179.399 24.7087 179.516 24.8268 179.563 25.0394C179.61 25.252 179.657 25.5354 179.657 25.937V34.0394C179.657 34.441 179.634 34.7244 179.563 34.9134C179.516 35.1024 179.375 35.2441 179.211 35.315C179.023 35.3858 178.764 35.4331 178.411 35.4331V35.7638C178.67 35.7402 179.023 35.7166 179.446 35.7166C179.869 35.7166 180.339 35.7166 180.809 35.7166C181.232 35.7166 181.679 35.7166 182.102 35.7166C182.525 35.7166 182.878 35.7402 183.136 35.7638V35.4331C182.784 35.4095 182.525 35.3622 182.337 35.315C182.149 35.2441 182.031 35.126 181.984 34.9134C181.937 34.7244 181.89 34.4173 181.89 34.0394V30.1181H186.521V34.0394C186.521 34.441 186.498 34.7244 186.427 34.9134C186.38 35.1024 186.239 35.2441 186.074 35.315C185.886 35.3858 185.628 35.4331 185.275 35.4331V35.7638C185.557 35.7402 185.933 35.7166 186.357 35.7166C186.78 35.7166 187.226 35.7166 187.649 35.7166C188.119 35.7166 188.566 35.7166 188.989 35.7166C189.412 35.7166 189.741 35.7402 189.976 35.7638V35.4331C189.624 35.4095 189.365 35.3622 189.177 35.315C188.989 35.2441 188.872 35.126 188.825 34.9134C188.778 34.7244 188.731 34.4173 188.731 34.0394V25.937C188.778 25.5118 188.801 25.2284 188.872 25.0394ZM81.2125 24.2362C81.048 24.2362 80.8834 24.2362 80.6954 24.2362C80.5073 24.2362 80.3428 24.2362 80.1783 24.2362L77.0049 32.6221L73.6435 24.1654C73.3614 24.1654 73.0088 24.189 72.6327 24.189C72.2566 24.189 71.857 24.2126 71.4574 24.2126C71.1988 24.2126 70.9403 24.2126 70.6582 24.189C70.3761 24.1654 70.1645 24.1654 70 24.1654V24.4961C70.3526 24.4961 70.6347 24.5433 70.7992 24.6142C70.9873 24.685 71.1048 24.8031 71.1518 25.0157C71.1988 25.2283 71.2458 25.5118 71.2458 25.9134V33.4488C71.2458 33.9213 71.2223 34.2992 71.1518 34.5827C71.0813 34.8661 70.9638 35.0551 70.7992 35.1732C70.6112 35.2913 70.3526 35.3622 70 35.4095V35.7402C70.1645 35.7165 70.3996 35.6929 70.6582 35.6929C70.9167 35.6929 71.1753 35.6929 71.4574 35.6929C71.7395 35.6929 72.0686 35.6929 72.3741 35.6929C72.6797 35.6929 72.9618 35.7165 73.1734 35.7402V35.4095C72.7267 35.3622 72.3741 35.2914 72.1626 35.1496C71.951 35.0315 71.7865 34.8189 71.7395 34.5355C71.669 34.252 71.6454 33.8504 71.6454 33.3071V25.2284L75.9236 35.7874H76.1822L80.0842 25.441V33.9921C80.0842 34.3937 80.0607 34.6772 79.9902 34.8662C79.9197 35.0551 79.8022 35.1969 79.6141 35.2677C79.4261 35.3386 79.144 35.3858 78.7679 35.3858V35.7166C79.0264 35.6929 79.379 35.6693 79.8022 35.6693C80.2253 35.6693 80.6954 35.6693 81.1655 35.6693C81.6121 35.6693 82.0588 35.6693 82.4819 35.6693C82.905 35.6693 83.2811 35.6929 83.5632 35.7166V35.3858C83.2106 35.3622 82.952 35.315 82.764 35.2677C82.5759 35.1969 82.4584 35.0788 82.4114 34.8662C82.3408 34.6772 82.3173 34.3701 82.3173 33.9921V25.8898C82.3173 25.4882 82.3408 25.1811 82.4114 24.9921C82.4819 24.8032 82.5994 24.6614 82.764 24.5906C82.9285 24.5197 83.2106 24.4724 83.5632 24.4724V24.1417C83.2811 24.1417 82.9285 24.1654 82.4819 24.1654C82.1058 24.2362 81.6592 24.2362 81.2125 24.2362ZM124.605 33.4016C124.605 32.8583 124.629 32.4331 124.652 32.1024H124.276C124.159 32.9291 123.994 33.5669 123.783 34.063C123.548 34.5355 123.265 34.8662 122.889 35.0788C122.513 35.2914 122.043 35.3858 121.502 35.3858H120.586C120.257 35.3858 119.998 35.3622 119.833 35.315C119.669 35.2677 119.551 35.1496 119.481 34.9606C119.41 34.7717 119.387 34.5118 119.387 34.1575V30.1181H120.092C120.539 30.1181 120.891 30.2126 121.15 30.4252C121.385 30.6142 121.573 30.8977 121.69 31.2284C121.808 31.5591 121.879 31.9134 121.949 32.2914H122.325C122.278 31.6772 122.255 31.2047 122.255 30.874C122.255 30.5433 122.231 30.2362 122.231 29.9764C122.231 29.6929 122.231 29.4095 122.231 29.0787C122.231 28.748 122.255 28.2756 122.278 27.6614H121.902C121.879 27.874 121.808 28.1102 121.738 28.3465C121.667 28.5827 121.573 28.8189 121.432 29.0551C121.314 29.2677 121.126 29.4567 120.915 29.5984C120.703 29.7402 120.421 29.811 120.092 29.811H119.387V25.8189C119.387 25.4646 119.41 25.1811 119.481 25.0157C119.528 24.8504 119.645 24.7323 119.833 24.6614C119.998 24.6142 120.257 24.5906 120.586 24.5906H121.479C122.02 24.5906 122.443 24.685 122.772 24.8504C123.101 25.0158 123.359 25.3228 123.571 25.7717C123.759 26.1969 123.9 26.7874 123.994 27.5433H124.37C124.37 27.4252 124.347 27.2598 124.347 27.0709C124.347 26.8819 124.323 26.6693 124.323 26.4803C124.323 26.2677 124.323 25.937 124.347 25.5354C124.37 25.1102 124.394 24.685 124.441 24.2362C123.947 24.2598 123.383 24.2835 122.748 24.2835C122.114 24.2835 121.549 24.2835 121.056 24.2835C120.797 24.2835 120.468 24.2835 120.069 24.2835C119.669 24.2835 119.222 24.2835 118.752 24.2835C118.282 24.2835 117.812 24.2835 117.318 24.2599C116.825 24.2362 116.378 24.2362 115.955 24.2362V24.5669C116.308 24.5669 116.59 24.6142 116.754 24.685C116.942 24.7559 117.06 24.874 117.107 25.0866C117.154 25.2992 117.201 25.5827 117.201 25.9843V34.0866C117.201 34.4882 117.177 34.7717 117.107 34.9606C117.06 35.1496 116.919 35.2914 116.754 35.3622C116.566 35.4331 116.308 35.4803 115.955 35.4803V35.811C116.378 35.811 116.848 35.7874 117.318 35.7874C117.788 35.7874 118.282 35.7874 118.729 35.7638C119.199 35.7638 119.622 35.7638 120.045 35.7638C120.468 35.7638 120.774 35.7638 121.032 35.7638C121.573 35.7638 122.184 35.7638 122.889 35.7638C123.595 35.7638 124.206 35.7874 124.77 35.811C124.723 35.3386 124.699 34.8898 124.676 34.4646C124.605 33.9449 124.605 33.6142 124.605 33.4016Z" fill="#FFD700"/>
</g>
</svg>
