<svg width="76" height="32" viewBox="0 0 76 32" fill="none" xmlns="http://www.w3.org/2000/svg">
<g id="Social Media Link">
<g id="Group 1000003049">
<rect id="Rectangle 4714" width="32" height="32" rx="16" fill="white"/>
<path id="Vector" d="M18.677 16.932L19.0916 14.0583H16.498V12.1942C16.498 11.4078 16.8596 10.6408 18.0213 10.6408H19.2012V8.19417C19.2012 8.19417 18.1309 8 17.108 8C14.971 8 13.5756 9.3767 13.5756 11.868V14.0583H11.2012V16.932H13.5756V23.8796C14.0523 23.9592 14.54 24 15.0368 24C15.5336 24 16.0213 23.9592 16.498 23.8796V16.932H18.677Z" fill="#000A1A"/>
</g>
<g id="Group 1000003050">
<rect id="Rectangle 4714_2" x="44" width="32" height="32" rx="16" fill="white"/>
<path id="Subtract" fill-rule="evenodd" clip-rule="evenodd" d="M60.0029 9.15234C58.1416 9.15234 57.9076 9.16051 57.1756 9.19316C56.4464 9.22581 55.9484 9.34282 55.5131 9.51153C55.0614 9.68568 54.6804 9.92241 54.2995 10.3034C53.9185 10.6843 53.6845 11.068 53.5076 11.517C53.3389 11.9523 53.2219 12.4503 53.1893 13.1823C53.1566 13.9115 53.1484 14.1455 53.1484 16.0068C53.1484 17.868 53.1566 18.102 53.1893 18.834C53.2219 19.5632 53.3389 20.0612 53.5076 20.4993C53.6818 20.951 53.9185 21.3319 54.2995 21.7129C54.6804 22.0938 55.0641 22.3278 55.5131 22.5047C55.9484 22.6734 56.4464 22.7904 57.1784 22.8231C57.9103 22.8557 58.1416 22.8639 60.0056 22.8639C61.8695 22.8639 62.1008 22.8557 62.8328 22.8231C63.562 22.7904 64.06 22.6734 64.4981 22.5047C64.9498 22.3306 65.3308 22.0938 65.7117 21.7129C66.0927 21.3319 66.3267 20.9483 66.5035 20.4993C66.6722 20.0639 66.7893 19.5659 66.8219 18.834C66.8546 18.102 66.8627 17.8707 66.8627 16.0068C66.8627 14.1428 66.8546 13.9115 66.8219 13.1796C66.7893 12.4503 66.6722 11.9523 66.5035 11.5142C66.3294 11.0625 66.0927 10.6816 65.7117 10.3006C65.3308 9.91969 64.9471 9.68568 64.4981 9.50881C64.0627 9.3401 63.5648 9.22309 62.8328 9.19044C62.0981 9.16051 61.8641 9.15234 60.0029 9.15234ZM60.0113 12.4883C58.0685 12.4883 56.4902 14.0638 56.4902 16.0094C56.4902 17.9549 58.0657 19.5304 60.0113 19.5304C61.9569 19.5304 63.5324 17.9549 63.5324 16.0094C63.5324 14.0638 61.9569 12.4883 60.0113 12.4883ZM60.0113 18.2924C58.7487 18.2924 57.7256 17.2692 57.7256 16.0066C57.7256 14.7441 58.7487 13.7209 60.0113 13.7209C61.2739 13.7209 62.297 14.7441 62.297 16.0066C62.297 17.2692 61.2739 18.2924 60.0113 18.2924ZM64.4874 12.3454C64.4874 12.7993 64.1195 13.1672 63.6656 13.1672C63.2118 13.1672 62.8439 12.7993 62.8439 12.3454C62.8439 11.8916 63.2118 11.5237 63.6656 11.5237C64.1195 11.5237 64.4874 11.8916 64.4874 12.3454Z" fill="#000A1A"/>
</g>
</g>
</svg>
