<svg width="176" height="32" viewBox="0 0 176 32" fill="none" xmlns="http://www.w3.org/2000/svg">
<g id="Group 1000003425">
<g id="grade">
<mask id="mask0_2362_1313" style="mask-type:alpha" maskUnits="userSpaceOnUse" x="0" y="0" width="32" height="32">
<rect id="Bounding box" x="0.5" y="0.5" width="31" height="31" fill="#D9D9D9" stroke="#000A1A"/>
</mask>
<g mask="url(#mask0_2362_1313)">
<path id="grade_2" d="M8.52039 28.2949L10.4208 20.0793L10.4886 19.7861L10.2612 19.5889L3.88701 14.0626L12.3102 13.3315L12.6103 13.3054L12.7275 13.028L16.0003 5.28436L19.2731 13.028L19.3904 13.3054L19.6904 13.3315L28.1136 14.0626L21.7395 19.5889L21.512 19.7861L21.5798 20.0793L23.4802 28.2949L16.2586 23.9385L16.0003 23.7827L15.7421 23.9385L8.52039 28.2949Z" fill="#FFD700" stroke="#000A1A"/>
</g>
</g>
<g id="grade_3">
<mask id="mask1_2362_1313" style="mask-type:alpha" maskUnits="userSpaceOnUse" x="36" y="0" width="32" height="32">
<rect id="Bounding box_2" x="36.5" y="0.5" width="31" height="31" fill="#D9D9D9" stroke="#000A1A"/>
</mask>
<g mask="url(#mask1_2362_1313)">
<path id="grade_4" d="M44.5204 28.2949L46.4208 20.0793L46.4886 19.7861L46.2612 19.5889L39.887 14.0626L48.3102 13.3315L48.6103 13.3054L48.7275 13.028L52.0003 5.28436L55.2731 13.028L55.3904 13.3054L55.6904 13.3315L64.1136 14.0626L57.7395 19.5889L57.512 19.7861L57.5798 20.0793L59.4802 28.2949L52.2586 23.9385L52.0003 23.7827L51.7421 23.9385L44.5204 28.2949Z" fill="#FFD700" stroke="#000A1A"/>
</g>
</g>
<g id="grade_5">
<mask id="mask2_2362_1313" style="mask-type:alpha" maskUnits="userSpaceOnUse" x="72" y="0" width="32" height="32">
<rect id="Bounding box_3" x="72.5" y="0.5" width="31" height="31" fill="#D9D9D9" stroke="#000A1A"/>
</mask>
<g mask="url(#mask2_2362_1313)">
<path id="grade_6" d="M80.5194 28.2949L82.4198 20.0793L82.4877 19.7861L82.2602 19.5889L75.886 14.0626L84.3093 13.3315L84.6093 13.3054L84.7266 13.028L87.9993 5.28436L91.2721 13.028L91.3894 13.3054L91.6894 13.3315L100.113 14.0626L93.7385 19.5889L93.511 19.7861L93.5789 20.0793L95.4793 28.2949L88.2576 23.9385L87.9993 23.7827L87.7411 23.9385L80.5194 28.2949Z" fill="#FFD700" stroke="#000A1A"/>
</g>
</g>
<g id="grade_7">
<mask id="mask3_2362_1313" style="mask-type:alpha" maskUnits="userSpaceOnUse" x="108" y="0" width="32" height="32">
<rect id="Bounding box_4" x="108.5" y="0.5" width="31" height="31" fill="#D9D9D9" stroke="#000A1A"/>
</mask>
<g mask="url(#mask3_2362_1313)">
<path id="grade_8" d="M116.52 28.2949L118.421 20.0793L118.489 19.7861L118.261 19.5889L111.887 14.0626L120.31 13.3315L120.61 13.3054L120.728 13.028L124 5.28436L127.273 13.028L127.39 13.3054L127.69 13.3315L136.114 14.0626L129.739 19.5889L129.512 19.7861L129.58 20.0793L131.48 28.2949L124.259 23.9385L124 23.7827L123.742 23.9385L116.52 28.2949Z" fill="#FFD700" stroke="#000A1A"/>
</g>
</g>
<g id="grade_9">
<mask id="mask4_2362_1313" style="mask-type:alpha" maskUnits="userSpaceOnUse" x="144" y="0" width="32" height="32">
<rect id="Bounding box_5" x="144.5" y="0.5" width="31" height="31" fill="#D9D9D9" stroke="#000A1A"/>
</mask>
<g mask="url(#mask4_2362_1313)">
<path id="grade_10" d="M152.52 28.2949L154.421 20.0793L154.489 19.7861L154.261 19.5889L147.887 14.0626L156.31 13.3315L156.61 13.3054L156.728 13.028L160 5.28436L163.273 13.028L163.39 13.3054L163.69 13.3315L172.114 14.0626L165.739 19.5889L165.512 19.7861L165.58 20.0793L167.48 28.2949L160.259 23.9385L160 23.7827L159.742 23.9385L152.52 28.2949Z" fill="#FFD700" stroke="#000A1A"/>
</g>
</g>
</g>
</svg>
